<svg width="75" height="97" viewBox="0 0 75 97" fill="none" xmlns="http://www.w3.org/2000/svg">
<path d="M43.9 29.8009C42.8493 32.5639 42.6854 35.5855 43.431 38.4459C44.192 41.2859 44.681 41.2069 48.911 42.5549C47.466 46.3679 41.562 50.5179 37.643 50.5809C34.111 50.6379 24.243 46.1329 22.475 42.9459C24.461 42.7619 30.421 41.8459 31.542 39.0019C32.897 35.5659 31.657 32.3789 31.229 30.7539L43.9 29.8009Z" fill="#FFD8B7" stroke="#222222" stroke-width="0.400013" stroke-miterlimit="10"/>
<path d="M54.408 95.488C54.23 87.9737 54.7191 80.2695 54.6381 72.2543C54.6271 71.1362 54.8011 69.2032 54.8011 66.4601C57.0291 65.8681 62.8013 64.431 64.3574 62.582C66.1424 60.4649 63.1173 56.6058 61.5433 54.2737C61.0796 53.5899 60.6824 52.8632 60.3572 52.1036C59.2322 49.6265 58.9422 47.9245 57.0341 45.4034C57.0341 45.4034 56.6821 44.9654 56.2751 44.5504C55.4261 43.6844 52.275 43.0503 45.5558 41.3783C44.6407 44.0964 41.4896 45.9594 37.4145 46.0314C33.4024 46.1024 29.3953 44.2764 28.3702 41.5933C15.9358 43.5073 15.1488 45.3934 14.3698 48.0675C14.0868 49.0345 13.5018 51.1746 12.5947 55.0887C12.2238 56.6345 11.6985 58.1391 11.0267 59.5799C8.21161 65.7991 6.17753 67.9391 7.20556 69.2802C7.68258 69.9032 8.4736 69.8392 12.2057 70.1452C15.1908 70.3892 17.6279 70.6712 19.268 70.8792L18.3069 95.519" fill="#DAF0F3"/>
<path d="M54.408 95.488C54.23 87.9737 54.7191 80.2695 54.6381 72.2543C54.6271 71.1362 54.8011 69.2032 54.8011 66.4601C57.0291 65.8681 62.8013 64.431 64.3574 62.582C66.1424 60.4649 63.1173 56.6058 61.5433 54.2737C61.0796 53.5899 60.6824 52.8632 60.3572 52.1036C59.2322 49.6265 58.9422 47.9245 57.0341 45.4034C57.0341 45.4034 56.6821 44.9654 56.2751 44.5504C55.4261 43.6844 52.275 43.0503 45.5558 41.3783C44.6407 44.0964 41.4896 45.9594 37.4145 46.0314C33.4024 46.1024 29.3953 44.2764 28.3702 41.5933C15.9358 43.5073 15.1488 45.3934 14.3698 48.0675C14.0868 49.0345 13.5018 51.1746 12.5947 55.0887C12.2238 56.6345 11.6985 58.1391 11.0267 59.5799C8.21161 65.7991 6.17753 67.9391 7.20556 69.2802C7.68258 69.9032 8.4736 69.8392 12.2057 70.1452C15.1908 70.3892 17.6279 70.6712 19.268 70.8792L18.3069 95.519" stroke="#222222" stroke-width="0.400013" stroke-miterlimit="10"/>
<path d="M19.1989 71.7018C19.5206 66.8177 20.5604 62.0076 22.2849 57.4268L19.1989 71.7018Z" fill="white"/>
<path d="M19.1989 71.7018C19.5206 66.8177 20.5604 62.0076 22.2849 57.4268" stroke="#222222" stroke-width="0.400013" stroke-miterlimit="10" stroke-linecap="round"/>
<path d="M54.257 57.0998C54.7705 60.1916 54.9529 63.3293 54.801 66.4598" stroke="#222222" stroke-width="0.400013" stroke-miterlimit="10" stroke-linecap="round"/>
<path d="M48.4668 21.8987C48.6978 21.9107 51.0828 22.0627 51.7458 23.4887C52.4458 24.9887 51.1828 27.7797 47.9458 29.1177C48.6213 26.7741 48.7995 24.3152 48.4688 21.8987H48.4668Z" fill="#FFD8B7" stroke="#222222" stroke-width="0.400013" stroke-miterlimit="10"/>
<path d="M26.453 21.7627C26.222 21.7747 23.837 21.9277 23.174 23.3527C22.474 24.8527 23.737 27.6437 26.974 28.9827C26.2984 26.6388 26.1203 24.1795 26.451 21.7627H26.453Z" fill="#FFD8B7" stroke="#222222" stroke-width="0.400013" stroke-miterlimit="10"/>
<path d="M37.413 39.591C43.7638 39.591 48.912 32.5162 48.912 23.789C48.912 15.0618 43.7638 7.98702 37.413 7.98702C31.0623 7.98702 25.914 15.0618 25.914 23.789C25.914 32.5162 31.0623 39.591 37.413 39.591Z" fill="#FFD8B7" stroke="#222222" stroke-width="0.400013" stroke-miterlimit="10"/>
<path d="M32.891 1.47003C36.2121 0.461162 39.7796 0.629276 42.991 1.94602C44.066 2.40102 48.917 4.44003 50.743 9.56903C52.743 15.192 50.129 21.493 48.743 21.479C47.508 21.468 48.043 16.426 44.658 14.467C42.364 13.14 41.121 14.867 36.997 13.655C33.806 12.722 32.975 11.229 31.128 11.736C29.411 12.206 28.449 13.955 27.718 15.285C25.829 18.719 26.435 21.444 25.809 21.546C24.832 21.706 21.052 15.446 23.02 9.56803C24.981 3.71703 31.411 1.89003 32.891 1.47003Z" fill="#474747" stroke="#222222" stroke-width="0.400013" stroke-miterlimit="10"/>
<path d="M34.2054 26.1726C34.6505 26.1726 35.0114 25.8118 35.0114 25.3666C35.0114 24.9215 34.6505 24.5606 34.2054 24.5606C33.7602 24.5606 33.3994 24.9215 33.3994 25.3666C33.3994 25.8118 33.7602 26.1726 34.2054 26.1726Z" fill="#222222"/>
<path d="M41.4816 26.1728C41.9267 26.1728 42.2876 25.8119 42.2876 25.3668C42.2876 24.9216 41.9267 24.5608 41.4816 24.5608C41.0365 24.5608 40.6756 24.9216 40.6756 25.3668C40.6756 25.8119 41.0365 26.1728 41.4816 26.1728Z" fill="#222222"/>
<path d="M37.7413 25.5966C37.4693 26.8586 37.4693 27.6796 37.9793 28.1496C38.2153 28.3666 38.6184 28.3076 38.9214 28.4386C39.0407 28.5066 39.1437 28.5997 39.2231 28.7117C39.3026 28.8236 39.3566 28.9516 39.3814 29.0866C39.4061 29.2216 39.4011 29.3604 39.3665 29.4932C39.332 29.6261 39.2688 29.7498 39.1813 29.8556C38.7882 30.2835 38.2848 30.5949 37.7264 30.7556" stroke="#222222" stroke-width="0.400013" stroke-linecap="round" stroke-linejoin="round"/>
<path d="M34.7584 20.3936C34.0656 20.5133 33.4247 20.8379 32.9184 21.3256" stroke="#222222" stroke-width="0.400013" stroke-miterlimit="10" stroke-linecap="round"/>
<path d="M41.0446 20.3936C41.3712 20.5047 41.671 20.6826 41.9252 20.9158C42.1793 21.1491 42.3821 21.4327 42.5206 21.7486" stroke="#222222" stroke-width="0.400013" stroke-miterlimit="10" stroke-linecap="round"/>
<path d="M41.7824 31.322C41.4264 35.422 34.5064 35.889 33.3664 31.348" stroke="#222222" stroke-width="0.400013" stroke-miterlimit="10" stroke-linecap="round"/>
<path d="M6.45436 68.6862V85.2567C6.45726 87.9264 7.51862 90.4861 9.40577 92.3746C11.2929 94.2631 13.8519 95.3262 16.5217 95.331C23.2429 95.776 30.4091 96.031 37.9753 96.019C45.0756 96.005 51.8278 95.751 58.176 95.331C59.7759 95.3239 61.3517 94.9406 62.7761 94.212C65.1786 92.9053 66.9864 90.7247 67.8253 88.1218C68.1049 87.1921 68.2471 86.2265 68.2473 85.2557C68.2473 85.2557 68.3253 64.866 66.0122 60.4919C64.793 58.8548 63.0856 57.6467 61.1361 57.0418C60.1761 56.7448 59.1769 56.5938 58.172 56.5938C52.0648 56.1358 45.5476 55.8487 38.6594 55.8167C30.7861 55.7797 23.3839 56.0788 16.5127 56.5938C13.6126 56.5938 8.74542 59.3308 8.1984 60.2479C8.2074 60.2489 6.45436 63.046 6.45436 68.6862Z" fill="white" stroke="#222222" stroke-width="0.400013" stroke-miterlimit="10" stroke-linecap="round"/>
<path d="M5.57636 70.1217C5.96336 68.8087 8.52237 68.4487 10.7894 68.3707C12.7234 68.3047 17.1114 66.3437 15.8974 62.3107C15.0314 59.4317 10.2924 59.6427 9.47236 59.8907C9.41036 59.9097 8.81337 60.1147 8.76737 60.0327C8.75348 59.8302 8.80403 59.6284 8.91181 59.4563C9.01958 59.2842 9.17906 59.1507 9.36738 59.0747C9.65346 58.9987 9.91158 58.8419 10.1109 58.6231C10.3102 58.4043 10.4423 58.1326 10.4914 57.8407C10.4464 56.2477 6.97336 58.0648 4.46836 60.4908C3.82291 61.1587 3.25712 61.8994 2.78235 62.6978C2.00766 63.6864 1.43452 64.8174 1.09537 66.0267C0.954373 66.7387 -1.19563 77.1628 6.45237 82.4348V72.0898C6.45237 72.0898 5.42436 70.6387 5.57636 70.1217Z" fill="#FFD8B7" stroke="#222222" stroke-width="0.400013" stroke-miterlimit="10"/>
<path d="M68.2552 82.4358C75.9032 77.1638 73.8102 66.7358 73.6682 66.0278C73.3288 64.8186 72.7556 63.6876 71.9812 62.6988C71.5059 61.9005 70.9398 61.1599 70.2942 60.4918C67.7882 58.0668 64.3152 56.2488 64.2702 57.8418C64.3196 58.1337 64.4518 58.4053 64.6513 58.6241C64.8508 58.8429 65.109 58.9997 65.3952 59.0758C65.5836 59.1516 65.7431 59.2851 65.8509 59.4572C65.9587 59.6293 66.0092 59.8312 65.9952 60.0338C65.9492 60.1168 65.3522 59.9108 65.2902 59.8918C64.4702 59.6428 60.3092 59.6738 58.8652 62.3118C57.7562 64.3368 58.8652 68.2478 63.9732 68.3718C65.8404 68.4568 67.6463 69.0634 69.1861 70.1228C69.1861 70.1228 69.4692 70.8398 67.8562 71.9028L68.2552 82.4358Z" fill="#FFD8B7" stroke="#222222" stroke-width="0.400013" stroke-miterlimit="10"/>
<path d="M37.3552 67.7055C43.1343 67.7055 47.8192 63.0206 47.8192 57.2415C47.8192 51.4624 43.1343 46.7775 37.3552 46.7775C31.5761 46.7775 26.8912 51.4624 26.8912 57.2415C26.8912 63.0206 31.5761 67.7055 37.3552 67.7055Z" fill="#D1ED7A" stroke="#222222" stroke-width="0.400013" stroke-miterlimit="10"/>
<path d="M41.5342 54.2305C41.1342 54.2815 40.7222 54.3125 40.3142 54.3465C40.1492 53.7878 39.8581 53.2746 39.4632 52.8465C40.1772 52.8735 40.8822 52.9115 41.5702 52.9685C41.7558 52.9829 41.9396 52.923 42.0811 52.802C42.2226 52.6809 42.3102 52.5086 42.3247 52.323C42.3391 52.1373 42.2792 51.9535 42.1582 51.812C42.0371 51.6705 41.8648 51.5829 41.6792 51.5685C40.3992 51.4685 39.0262 51.4085 37.5982 51.4045C37.4652 51.4045 37.3322 51.4125 37.1982 51.4135C37.1649 51.4114 37.1315 51.4114 37.0982 51.4135C35.9512 51.4265 34.7982 51.4745 33.6622 51.5675C33.4765 51.5753 33.3016 51.6565 33.1759 51.7934C33.0501 51.9302 32.9839 52.1113 32.9917 52.297C32.9995 52.4826 33.0808 52.6575 33.2176 52.7833C33.3544 52.909 33.5355 52.9753 33.7212 52.9675H33.7782C34.7712 52.8855 35.7782 52.8414 36.7782 52.8244C36.9569 52.8185 37.1343 52.8563 37.2952 52.9345C37.9645 53.2482 38.5102 53.776 38.8462 54.4345C38.4952 54.4475 38.1462 54.4695 37.7932 54.4715C36.4604 54.4742 35.1287 54.3927 33.8062 54.2275C33.6215 54.2048 33.4353 54.2564 33.2886 54.371C33.142 54.4856 33.0469 54.6537 33.0242 54.8385C33.0015 55.0232 33.0532 55.2093 33.1677 55.356C33.2823 55.5027 33.4505 55.5978 33.6352 55.6205C34.9759 55.7898 36.3259 55.8749 37.6772 55.8754H37.7982C38.1272 55.8754 38.4572 55.8534 38.7862 55.8414C38.5484 56.2119 38.2136 56.51 37.8182 56.7034C37.1383 56.9655 36.391 56.9957 35.6922 56.7894C35.0542 56.6704 34.3292 56.5345 33.9212 57.1595C33.3522 58.0315 34.3032 59.2664 35.4152 60.4704C36.619 61.7639 38.038 62.8389 39.6092 63.6474C39.6909 63.6901 39.7803 63.7163 39.8721 63.7244C39.964 63.7326 40.0566 63.7226 40.1445 63.6949C40.2325 63.6673 40.3142 63.6226 40.3849 63.5634C40.4556 63.5042 40.514 63.4317 40.5567 63.35C40.5994 63.2682 40.6255 63.1788 40.6337 63.087C40.6418 62.9951 40.6318 62.9026 40.6042 62.8146C40.5765 62.7266 40.5319 62.6449 40.4727 62.5742C40.4135 62.5035 40.3409 62.4451 40.2592 62.4025C38.8316 61.6674 37.5417 60.6914 36.4462 59.5175C36.0391 59.0935 35.6681 58.6362 35.3372 58.1505L35.4372 58.1684C36.4282 58.4341 37.4794 58.3638 38.4262 57.9685C39.1614 57.6125 39.7609 57.0271 40.1342 56.3005C40.2163 56.1314 40.3408 55.9864 40.4955 55.8797C40.6502 55.773 40.83 55.7081 41.0172 55.6915C41.2482 55.6705 41.4802 55.6464 41.7092 55.6174C41.8008 55.6062 41.8894 55.577 41.9697 55.5314C42.05 55.4858 42.1205 55.4247 42.1771 55.3517C42.2337 55.2788 42.2753 55.1953 42.2995 55.1062C42.3238 55.0171 42.3301 54.924 42.3182 54.8324C42.2904 54.6503 42.1933 54.486 42.0472 54.3739C41.9011 54.2617 41.7173 54.2103 41.5342 54.2305Z" fill="#2D2D2D"/>
<path d="M44.6052 78.5272H41.0572C40.7012 78.527 40.3598 78.3854 40.1082 78.1335C39.8566 77.8817 39.7152 77.5403 39.7152 77.1842V73.6362C39.7281 73.111 39.5585 72.5976 39.2352 72.1834C38.9119 71.7693 38.4549 71.4801 37.9422 71.3652C37.6279 71.3069 37.3045 71.3184 36.9951 71.3989C36.6856 71.4793 36.3977 71.6268 36.1515 71.8309C35.9054 72.0349 35.7071 72.2906 35.5707 72.5798C35.4343 72.8689 35.3631 73.1845 35.3622 73.5043V77.1842C35.3622 77.5403 35.2208 77.8817 34.9692 78.1335C34.7175 78.3854 34.3762 78.527 34.0202 78.5272H30.4722C29.9469 78.5141 29.4334 78.6837 29.0192 79.007C28.605 79.3304 28.3159 79.7875 28.2012 80.3002C28.1429 80.6146 28.1544 80.9379 28.2348 81.2474C28.3153 81.5568 28.4628 81.8448 28.6668 82.0909C28.8709 82.337 29.1265 82.5353 29.4157 82.6717C29.7049 82.8081 30.0205 82.8793 30.3402 82.8803H34.0202C34.3761 82.8803 34.7175 83.0216 34.9691 83.2733C35.2208 83.525 35.3622 83.8663 35.3622 84.2222V87.7702C35.3493 88.2955 35.5189 88.809 35.8422 89.2231C36.1656 89.6372 36.6225 89.9264 37.1352 90.0412C37.4496 90.0996 37.7729 90.0881 38.0823 90.0076C38.3918 89.9272 38.6797 89.7797 38.9259 89.5756C39.172 89.3716 39.3703 89.1159 39.5067 88.8267C39.6431 88.5376 39.7143 88.222 39.7152 87.9022V84.2272C39.7152 83.8713 39.8566 83.53 40.1083 83.2783C40.3599 83.0266 40.7013 82.8852 41.0572 82.8852H44.7372C45.057 82.8844 45.3727 82.8134 45.662 82.677C45.9513 82.5407 46.2071 82.3424 46.4113 82.0963C46.6154 81.8501 46.763 81.5621 46.8435 81.2526C46.924 80.9431 46.9355 80.6197 46.8772 80.3052C46.7633 79.7915 46.4744 79.3332 46.06 79.0089C45.6455 78.6846 45.1313 78.5143 44.6052 78.5272Z" fill="#F8CDD9"/>
<path d="M37.4622 85.7732C37.0157 85.7338 36.6008 85.5266 36.3012 85.1932C35.6127 84.6103 34.9873 83.9567 34.4352 83.2432C34.2232 83.0082 32.6152 81.2062 32.5352 79.7432C32.5209 79.4666 32.5486 79.1895 32.6172 78.9212C32.7872 78.372 33.1356 77.8951 33.6072 77.5662C34.1304 77.244 34.7445 77.1017 35.3561 77.1607C35.9677 77.2197 36.5433 77.477 36.9952 77.8932C37.1472 78.0832 37.3052 78.3872 37.5542 78.3842C37.8032 78.3812 37.9392 78.0842 38.1122 77.8712C38.5081 77.4867 39.0173 77.2401 39.5644 77.1681C40.1115 77.096 40.6673 77.2024 41.1492 77.4712C41.5714 77.7495 41.8924 78.1567 42.0642 78.6322C42.1946 78.9875 42.2448 79.3672 42.2112 79.7442C42.013 80.9763 41.4416 82.118 40.5742 83.0152C39.9787 83.8316 39.2941 84.5792 38.5332 85.2442C38.2538 85.5468 37.8723 85.7352 37.4622 85.7732Z" fill="#F08798"/>
</svg>
