<svg width="96" height="97" viewBox="0 0 96 97" fill="none" xmlns="http://www.w3.org/2000/svg">
<path d="M94.8009 13.5609C94.8121 12.6032 94.4892 11.6714 93.8879 10.9259C93.6239 10.5929 93.2901 10.3218 92.91 10.1317C92.5299 9.94164 92.1127 9.83727 91.6879 9.82594C87.5539 9.57094 83.2259 9.42593 78.7169 9.41293C73.9309 9.41293 69.3519 9.5506 64.9799 9.82594C64.5545 9.83457 64.1364 9.93776 63.7559 10.128C63.3754 10.3183 63.042 10.5908 62.7799 10.9259C62.2126 11.69 61.8935 12.6097 61.8659 13.5609C61.6359 16.1379 61.4769 18.9919 61.4769 22.0829C61.4669 25.4139 61.6249 28.4759 61.8659 31.2179C61.8655 31.5056 61.8929 31.7926 61.9479 32.0749C62.0804 32.7245 62.3648 33.3334 62.7779 33.8519C63.0992 34.2696 63.5224 34.5977 64.0069 34.8049C64.8289 35.1319 65.2579 34.7869 65.4169 35.0289C65.9169 35.7859 62.1229 39.7529 62.5709 40.5289C62.6389 40.6479 62.9599 40.9559 66.6049 39.0209C70.1109 37.1569 70.8169 36.3349 72.5749 35.6899C74.4697 35.2268 76.4312 35.1002 78.3699 35.3159C78.3699 35.3159 87.2349 35.3259 91.6819 34.9539C92.1025 34.925 92.5134 34.8134 92.8909 34.6255C93.2684 34.4376 93.6052 34.1771 93.8819 33.8589C94.0528 33.6524 94.201 33.4282 94.3239 33.1899C94.6284 32.5787 94.7888 31.9058 94.7929 31.2229C94.9439 28.7469 95.0389 26.1229 95.0579 23.3649C95.0849 19.8819 94.9819 16.6019 94.8009 13.5609Z" fill="white" stroke="#222222" stroke-width="0.399996" stroke-miterlimit="10" stroke-linecap="round"/>
<path d="M83.4978 26.8528C83.0427 26.8549 82.5894 26.7943 82.1508 26.6728C80.9228 26.3288 80.0698 25.3918 78.3878 23.5268L78.2458 23.3668C76.7818 25.1558 75.0868 26.8288 72.7548 26.8288H72.6938C71.5958 26.8251 70.5364 26.4237 69.7118 25.6988C68.9853 24.945 68.5211 23.9771 68.388 22.9387C68.2549 21.9002 68.4599 20.8465 68.9728 19.9338C69.3499 19.2669 69.884 18.7019 70.5287 18.2879C71.1734 17.8739 71.9094 17.6233 72.6728 17.5578C73.5794 17.6058 74.4659 17.843 75.2753 18.2541C76.0848 18.6652 76.7992 19.2411 77.3728 19.9448C77.6803 20.2227 77.963 20.5269 78.2178 20.8538C79.7538 18.9068 81.3948 17.0538 83.6908 17.1838C84.5965 17.2766 85.4598 17.6142 86.1882 18.1604C86.9166 18.7065 87.4826 19.4407 87.8254 20.2841C88.1683 21.1275 88.2751 22.0483 88.1344 22.9477C87.9937 23.8472 87.6108 24.6914 87.0268 25.3898C86.5715 25.8642 86.0229 26.2392 85.4155 26.491C84.8081 26.7428 84.1552 26.866 83.4978 26.8528ZM79.2388 22.1068L79.5588 22.4628C81.0458 24.1088 81.7908 24.9318 82.5798 25.1528C83.1534 25.3201 83.7614 25.3305 84.3404 25.183C84.9194 25.0354 85.4482 24.7353 85.8718 24.3138C86.2538 23.836 86.5016 23.2649 86.5894 22.6594C86.6772 22.0539 86.6019 21.4359 86.3713 20.8692C86.1408 20.3025 85.7632 19.8075 85.2776 19.4353C84.792 19.0631 84.2159 18.8272 83.6088 18.7518C81.9948 18.6118 80.6448 20.3068 79.2378 22.1058L79.2388 22.1068ZM72.7138 25.2488H72.7538C74.5148 25.2488 75.8618 23.8198 77.2178 22.1278L77.1488 22.0368C76.9004 21.6942 76.6172 21.3782 76.3038 21.0938C75.1608 20.0358 74.0618 19.0428 72.7818 19.1228C72.278 19.1723 71.7935 19.3421 71.369 19.6179C70.9445 19.8937 70.5926 20.2675 70.3428 20.7078C70.0004 21.3133 69.8594 22.0119 69.9403 22.7028C70.0212 23.3937 70.3197 24.0409 70.7928 24.5508C71.3287 25.0065 72.0103 25.2548 72.7138 25.2508V25.2488Z" fill="#D1ED7A" stroke="#222222" stroke-width="0.399996" stroke-miterlimit="10"/>
<path d="M37.1745 36.915C36.787 38.4555 36.9614 40.0836 37.6665 41.507C38.4386 42.7457 39.6294 43.6664 41.0225 44.102C38.1478 46.9937 35.8669 50.4201 34.3085 54.188C33.7965 55.501 33.1205 57.525 32.0735 57.557C31.0265 57.589 30.2425 55.657 29.5115 54.1C27.8885 50.6836 25.8574 47.4766 23.4625 44.549C23.2775 44.615 23.0915 44.691 22.8955 44.768C23.9846 44.3501 24.9515 43.6655 25.7075 42.777C27.0306 41.0896 27.6656 38.9637 27.4845 36.827C24.7678 34.7279 22.7282 31.8763 21.6195 28.627C20.9438 26.5351 20.6773 24.3327 20.8345 22.14C21.0205 20.127 21.1075 19.054 21.8055 18.015C23.7995 15.05 27.8115 17.282 32.4435 14.022C35.6265 11.768 36.1165 9.66801 37.9915 9.77701C41.4025 9.97701 43.3765 17.096 43.5505 17.777C44.4085 21.2213 44.2837 24.8371 43.1905 28.214C42.0657 31.6336 39.9765 34.6551 37.1745 36.915Z" fill="#FFD8B7" stroke="#222222" stroke-width="0.399996" stroke-miterlimit="10"/>
<path d="M32.4025 38.275C38.894 38.275 44.1565 31.1845 44.1565 22.438C44.1565 13.6915 38.894 6.60101 32.4025 6.60101C25.9109 6.60101 20.6485 13.6915 20.6485 22.438C20.6485 31.1845 25.9109 38.275 32.4025 38.275Z" fill="#FFD8B7" stroke="#222222" stroke-width="0.399996" stroke-miterlimit="10"/>
<path d="M54.0665 33.906C52.9135 36.7869 51.0606 39.335 48.6755 41.32C46.4075 43.208 43.9105 44.353 41.9245 44.242H41.8795C41.5871 44.2355 41.2971 44.1888 41.0175 44.103C39.6235 43.6668 38.4328 42.744 37.6625 41.503C36.9638 40.1747 36.8 38.6293 37.2045 37.184C39.9871 34.8002 42.0574 31.6944 43.1875 28.209C44.2812 24.8332 44.4059 21.2182 43.5475 17.775C43.3715 17.097 41.4015 9.97502 37.9895 9.77502C36.1135 9.66502 35.8895 13.629 31.8895 17.348C27.3815 21.541 23.6595 22.183 21.9105 22.207H21.8985C21.6817 22.2153 21.4646 22.2096 21.2485 22.19C21.2376 22.1882 21.2264 22.1882 21.2155 22.19L21.0805 22.178C21.0534 22.1735 21.026 22.1708 20.9985 22.17C20.9906 22.168 20.9824 22.168 20.9745 22.17C20.9278 22.1644 20.8814 22.1564 20.8355 22.146V22.167C20.2885 22.167 19.6875 22.359 19.3805 23.385C18.9185 24.938 19.3435 26.285 21.3095 27.545C21.3955 27.896 21.5015 28.26 21.6205 28.632C22.7221 31.9168 24.7363 34.82 27.4275 37.002C27.6333 39.0793 27.0157 41.1543 25.7075 42.781C24.9499 43.6675 23.9835 44.3514 22.8955 44.771C22.8787 44.7725 22.8629 44.7795 22.8505 44.791C22.1043 45.0679 21.33 45.2624 20.5415 45.371C15.7415 46.148 12.0615 42.976 11.6245 42.592C11.5606 42.5199 11.491 42.453 11.4165 42.392C7.44449 38.8 7.11649 33.328 6.94949 31.362C6.23849 23.147 12.1075 14.079 18.1145 8.57401C21.7275 5.26801 26.7215 0.691016 33.5835 1.05402C38.6015 1.32002 42.0955 4.09902 44.2135 5.78302C52.4325 12.32 57.6385 24.711 54.0665 33.906Z" fill="#474747" stroke="#222222" stroke-width="0.399996" stroke-miterlimit="10"/>
<path d="M43.34 27.9698C46.387 26.5308 47.54 23.8278 46.812 22.3368C46.225 21.1368 44.483 20.8618 44.076 20.8068C44.2501 23.2188 44.001 25.6436 43.34 27.9698Z" fill="#FFD8B7" stroke="#222222" stroke-width="0.399996" stroke-miterlimit="10"/>
<path d="M21.3115 27.543C19.3455 26.284 18.9205 24.935 19.3825 23.383C19.6885 22.357 20.2895 22.161 20.8375 22.165C20.7038 23.9715 20.8638 25.7877 21.3115 27.543Z" fill="#FFD8B7" stroke="#222222" stroke-width="0.399996" stroke-miterlimit="10"/>
<path d="M9.21049 96.3706C12.0475 76.4636 13.4185 69.1426 13.3815 67.6816C11.8375 69.0306 9.4505 68.6206 7.1595 68.2276C4.0595 67.6946 1.49549 67.2546 0.816494 65.5896C0.329494 64.3966 0.377496 62.8176 5.8955 55.7896C10.9355 49.3706 13.8275 47.6156 14.9955 46.8146C18.4565 44.4456 23.2565 44.6266 23.4595 44.5466C25.9055 47.4369 27.941 50.6509 29.5085 54.0976C30.1365 55.5086 30.8845 57.2066 31.8645 57.1896C32.6715 57.1756 33.0375 55.9996 35.0055 52.4306C35.9005 50.7173 36.9098 49.0663 38.0265 47.4886C38.9214 46.2719 39.9231 45.1374 41.0195 44.0986C41.1135 44.1126 41.2545 44.1336 41.4255 44.1616C45.9753 44.944 50.1935 47.0505 53.5525 50.2176C54.5885 51.2176 56.0855 53.7046 59.0805 58.6766C62.1895 63.8376 62.5685 65.1096 62.1315 66.3466C61.2545 68.8266 57.6635 69.5636 55.9085 69.9246C54.0925 70.2976 50.9865 70.5356 49.2875 69.5596C49.3645 71.1656 52.8605 94.2756 53.3375 96.3706" fill="white"/>
<path d="M9.21049 96.3706C12.0475 76.4636 13.4185 69.1426 13.3815 67.6816C11.8375 69.0306 9.4505 68.6206 7.1595 68.2276C4.0595 67.6946 1.49549 67.2546 0.816494 65.5896C0.329494 64.3966 0.377496 62.8176 5.8955 55.7896C10.9355 49.3706 13.8275 47.6156 14.9955 46.8146C18.4565 44.4456 23.2565 44.6266 23.4595 44.5466C25.9055 47.4369 27.941 50.6509 29.5085 54.0976C30.1365 55.5086 30.8845 57.2066 31.8645 57.1896C32.6715 57.1756 33.0375 55.9996 35.0055 52.4306C35.9005 50.7173 36.9098 49.0663 38.0265 47.4886C38.9214 46.2719 39.9231 45.1374 41.0195 44.0986C41.1135 44.1126 41.2545 44.1336 41.4255 44.1616C45.9753 44.944 50.1935 47.0505 53.5525 50.2176C54.5885 51.2176 56.0855 53.7046 59.0805 58.6766C62.1895 63.8376 62.5685 65.1096 62.1315 66.3466C61.2545 68.8266 57.6635 69.5636 55.9085 69.9246C54.0925 70.2976 50.9865 70.5356 49.2875 69.5596C49.3645 71.1656 52.8605 94.2756 53.3375 96.3706" stroke="#222222" stroke-width="0.399996" stroke-miterlimit="10" stroke-linecap="round"/>
<path d="M40.8911 53.0206C41.1801 51.5456 41.4471 50.0046 41.6841 48.3996C41.8841 47.0296 42.0541 45.6992 42.1941 44.4086" fill="#CBBEDE"/>
<path d="M40.8911 53.0206C41.1801 51.5456 41.4471 50.0046 41.6841 48.3996C41.8841 47.0296 42.0541 45.6992 42.1941 44.4086" stroke="#222222" stroke-width="0.399996" stroke-miterlimit="10" stroke-linecap="round"/>
<path d="M35.3122 67.6205C33.7662 67.6965 32.8552 67.3495 32.3822 66.7405C30.0762 63.7765 36.4282 52.3915 40.7972 53.0015C45.3232 53.6325 48.2032 67.2015 45.1292 69.2575C44.5092 69.6725 43.5472 69.6845 42.1082 69.0755" stroke="#222222" stroke-width="0.399996" stroke-miterlimit="10" stroke-linecap="round"/>
<path d="M20.5753 44.8055C20.6962 47.0911 20.9382 49.3686 21.3003 51.6285C21.7172 54.0735 22.2921 56.4889 23.0213 58.8595" stroke="#222222" stroke-width="0.399996" stroke-miterlimit="10" stroke-linecap="round"/>
<path d="M23.4033 62.5874C24.6421 62.5874 25.6463 61.5796 25.6463 60.3364C25.6463 59.0932 24.6421 58.0854 23.4033 58.0854C22.1645 58.0854 21.1603 59.0932 21.1603 60.3364C21.1603 61.5796 22.1645 62.5874 23.4033 62.5874Z" fill="#D1ED7A" stroke="#222222" stroke-width="0.399996" stroke-miterlimit="10" stroke-linecap="round"/>
<path d="M35.0321 68.9263C35.7882 68.9263 36.4011 68.3112 36.4011 67.5523C36.4011 66.7935 35.7882 66.1783 35.0321 66.1783C34.2761 66.1783 33.6631 66.7935 33.6631 67.5523C33.6631 68.3112 34.2761 68.9263 35.0321 68.9263Z" fill="#D1ED7A" stroke="#222222" stroke-width="0.399996" stroke-miterlimit="10" stroke-linecap="round"/>
<path d="M42.4931 70.3663C43.2491 70.3663 43.8621 69.7512 43.8621 68.9923C43.8621 68.2335 43.2491 67.6183 42.4931 67.6183C41.737 67.6183 41.1241 68.2335 41.1241 68.9923C41.1241 69.7512 41.737 70.3663 42.4931 70.3663Z" fill="#D1ED7A" stroke="#222222" stroke-width="0.399996" stroke-miterlimit="10" stroke-linecap="round"/>
<path d="M13.3214 68.5004L16.6744 57.5404Z" fill="#CBBEDE"/>
<path d="M13.3214 68.5004L16.6744 57.5404" stroke="#222222" stroke-width="0.399996" stroke-miterlimit="10" stroke-linecap="round"/>
<path d="M57.383 61.3834L56.283 61.6244C56.1912 61.6464 56.0945 61.6312 56.0139 61.5821C55.9333 61.533 55.8755 61.454 55.853 61.3624L55.62 60.3124C55.5504 60.0251 55.3725 59.7759 55.1234 59.6168C54.8743 59.4577 54.5733 59.4011 54.2834 59.4588C53.9935 59.5166 53.7372 59.6842 53.5681 59.9266C53.399 60.169 53.3301 60.4674 53.376 60.7594L53.617 61.8484C53.626 61.8949 53.6257 61.9427 53.6162 61.9891C53.6067 62.0355 53.5881 62.0795 53.5615 62.1187C53.535 62.1579 53.5009 62.1915 53.4613 62.2175C53.4218 62.2436 53.3775 62.2615 53.331 62.2704L52.158 62.5274C51.8616 62.5844 51.5998 62.7564 51.4299 63.0058C51.2599 63.2552 51.1956 63.5617 51.251 63.8584C51.3259 64.1506 51.5137 64.4011 51.7732 64.5548C52.0328 64.7086 52.3427 64.753 52.635 64.6784L53.806 64.4124C53.8518 64.4007 53.8995 64.3982 53.9463 64.405C53.9931 64.4118 54.0381 64.4278 54.0787 64.4521C54.1193 64.4763 54.1547 64.5083 54.1829 64.5463C54.2111 64.5843 54.2315 64.6275 54.243 64.6734L54.478 65.7324C54.532 65.9798 54.6698 66.2009 54.868 66.3585C55.0662 66.5161 55.3128 66.6005 55.566 66.5974C55.7357 66.5997 55.9039 66.5644 56.0583 66.494C56.2128 66.4236 56.3498 66.3198 56.4593 66.1902C56.5689 66.0605 56.6484 65.9082 56.6921 65.7441C56.7358 65.5801 56.7426 65.4084 56.712 65.2414L56.473 64.1624C56.4546 64.0696 56.4737 63.9734 56.5259 63.8945C56.5781 63.8157 56.6594 63.7607 56.752 63.7414L57.852 63.4904C58.1371 63.4302 58.3871 63.2599 58.5473 63.0165C58.7076 62.773 58.7654 62.4761 58.708 62.1904C58.6386 61.9081 58.4602 61.6647 58.212 61.5135C57.9637 61.3623 57.6656 61.3155 57.383 61.3834Z" fill="#D1ED7A" stroke="#222222" stroke-width="0.399996" stroke-miterlimit="10"/>
<path d="M58.0074 69.4193C57.6739 72.0149 56.9257 74.5401 55.7914 76.8983C54.1694 80.4533 52.4593 81.6903 51.6833 82.1743C49.9003 83.2843 48.0573 83.5223 43.4673 83.5083C40.0792 83.5475 36.6914 83.4059 33.3184 83.0843C28.4914 82.4843 21.6464 81.3913 13.7874 80.0463C13.7874 80.0463 23.7234 79.0163 30.4184 78.0523C38.2414 76.9253 47.7343 75.0163 47.7343 75.0163C48.3012 73.9272 48.7154 72.7653 48.9653 71.5633C49.0973 70.9033 49.2053 70.2313 49.2953 69.5633C50.3142 70.083 51.4537 70.3206 52.5954 70.2513C54.4342 70.2931 56.266 70.0115 58.0074 69.4193Z" fill="#FFD8B7" stroke="#222222" stroke-width="0.399996" stroke-miterlimit="10"/>
<path d="M47.7105 75.0373C44.6105 75.6513 41.8105 76.1663 39.3585 76.5943C37.8865 76.8523 34.6415 77.4103 30.4175 78.0503C27.0565 78.5583 25.2175 78.8353 22.6845 79.1413C19.073 79.6655 15.4329 79.969 11.7845 80.0503C5.76546 80.0943 4.76446 79.3873 4.21846 78.7773C2.77046 77.1583 3.07346 74.6013 3.40246 71.8193C3.56406 70.4125 3.86556 69.0253 4.30246 67.6783C6.39648 68.1629 8.52714 68.4726 10.6725 68.6043C12.9845 68.6553 13.6795 67.3373 13.6795 67.3373C13.6365 67.4903 13.0695 71.1433 12.8415 72.0693" fill="#FFD8B7"/>
<path d="M47.7105 75.0373C44.6105 75.6513 41.8105 76.1663 39.3585 76.5943C37.8865 76.8523 34.6415 77.4103 30.4175 78.0503C27.0565 78.5583 25.2175 78.8353 22.6845 79.1413C19.073 79.6655 15.4329 79.969 11.7845 80.0503C5.76546 80.0943 4.76446 79.3873 4.21846 78.7773C2.77046 77.1583 3.07346 74.6013 3.40246 71.8193C3.56406 70.4125 3.86556 69.0253 4.30246 67.6783C6.39648 68.1629 8.52714 68.4726 10.6725 68.6043C12.9845 68.6553 13.6795 67.3373 13.6795 67.3373C13.6365 67.4903 13.0695 71.1433 12.8415 72.0693" stroke="#222222" stroke-width="0.399996" stroke-miterlimit="10"/>
<path d="M9.21046 71.9273C14.6571 72.122 20.2571 72.42 26.0105 72.8213C33.5475 73.3533 40.7345 74.2213 47.7105 75.0383" fill="#F8CDD9"/>
<path d="M9.21046 71.9273C14.6571 72.122 20.2571 72.42 26.0105 72.8213C33.5475 73.3533 40.7345 74.2213 47.7105 75.0383" stroke="#222222" stroke-width="0.399996" stroke-miterlimit="10"/>
<path d="M36.9081 23.2398C37.3803 23.2398 37.7631 22.857 37.7631 22.3848C37.7631 21.9126 37.3803 21.5298 36.9081 21.5298C36.4359 21.5298 36.0531 21.9126 36.0531 22.3848C36.0531 22.857 36.4359 23.2398 36.9081 23.2398Z" fill="#222222"/>
<path d="M29.1902 23.2398C29.6624 23.2398 30.0452 22.857 30.0452 22.3848C30.0452 21.9126 29.6624 21.5298 29.1902 21.5298C28.718 21.5298 28.3352 21.9126 28.3352 22.3848C28.3352 22.857 28.718 23.2398 29.1902 23.2398Z" fill="#222222"/>
<path d="M33.4502 22.9748C33.2022 24.1478 33.2022 24.9108 33.6672 25.3478C33.8822 25.5478 34.2512 25.4948 34.5272 25.6168C34.6365 25.6814 34.7307 25.7687 34.8032 25.873C34.8758 25.9772 34.925 26.0958 34.9476 26.2208C34.9702 26.3458 34.9656 26.4742 34.9341 26.5972C34.9026 26.7202 34.845 26.835 34.7652 26.9338C34.4089 27.331 33.9491 27.6212 33.4372 27.7718" stroke="#222222" stroke-width="0.399996" stroke-linecap="round" stroke-linejoin="round"/>
<path d="M36.3211 18.1788C37.056 18.3053 37.736 18.6495 38.2731 19.1668" stroke="#222222" stroke-width="0.399996" stroke-miterlimit="10" stroke-linecap="round"/>
<path d="M29.1182 18.6598C28.7716 18.7776 28.4534 18.9663 28.1837 19.2139C27.9141 19.4615 27.699 19.7625 27.5522 20.0978" stroke="#222222" stroke-width="0.399996" stroke-miterlimit="10" stroke-linecap="round"/>
<path d="M31.0522 30.0467C32.0522 33.1567 35.1902 33.1567 36.1892 30.0467" stroke="#222222" stroke-width="0.399996" stroke-miterlimit="10" stroke-linecap="round"/>
<path d="M47.515 60.7084C47.9866 62.2525 48.2397 63.8551 48.267 65.4694C48.307 67.4944 47.956 67.9234 48.357 68.6524C48.8241 69.3336 49.5358 69.8085 50.344 69.9784" stroke="#222222" stroke-width="0.399996" stroke-miterlimit="10" stroke-linecap="round"/>
</svg>
