<svg width="100" height="96" viewBox="0 0 100 96" fill="none" xmlns="http://www.w3.org/2000/svg">
<path opacity="0.3" d="M72.8896 79.5044C68.8751 79.4601 65.0124 78.1221 61.0687 77.3945C56.3486 76.5235 51.4569 76.5316 46.7402 77.4178C41.7389 78.3575 36.9269 80.2723 31.8478 80.6598C23.3631 81.3071 16.5727 77.2703 11.7844 70.4655C6.99617 63.6607 6.30628 54.3515 10.0423 46.9561C11.3139 44.4388 13.0474 42.1493 14.1852 39.5727C17.9171 31.1211 11.688 17.4926 17.3957 10.145C20.5069 6.13992 25.7393 4.0278 30.9097 3.72621C36.0801 3.42484 41.2167 5.88015 46.0466 7.68965C50.7046 9.43489 56.9407 12.3139 61.8301 11.3239C65.234 10.6346 68.1079 9.57744 71.4084 8.51757C78.4328 6.26187 86.575 9.76449 90.687 15.716C94.7991 21.6676 95.2801 29.4814 93.2945 36.3768C92.1009 40.5215 90.0671 44.5398 90.0547 48.8423C90.0465 51.6663 90.9171 54.4142 91.3867 57.2015C93.2076 68.0073 84.6969 79.6345 72.8896 79.5044Z" fill="#99DFE3"/>
<g opacity="0.3">
<path d="M74.6688 82.5503C70.3294 82.5025 66.1544 81.0564 61.8917 80.2698C56.7899 79.3284 51.5025 79.3371 46.404 80.295C40.9981 81.3108 35.7968 83.3804 30.3069 83.7992C21.1358 84.4988 13.796 80.1355 8.62047 72.7803C3.44472 65.4251 2.6992 55.3628 6.73742 47.3692C8.11206 44.6481 9.98584 42.1736 11.2155 39.3885C15.2493 30.253 8.51644 15.522 14.6857 7.58006C18.0485 3.25118 23.7044 0.968082 29.293 0.64219C34.8816 0.316298 40.4337 2.9704 45.6545 4.92637C50.6894 6.81271 57.4299 9.92475 62.7148 8.85458C66.394 8.10969 69.5005 6.9668 73.0682 5.82124C80.6607 3.38323 89.4615 7.16909 93.9063 13.6021C98.351 20.035 98.8711 28.481 96.7248 35.9343C95.4349 40.4142 93.2364 44.7577 93.223 49.4082C93.2142 52.4607 94.1552 55.431 94.6628 58.4435C96.6307 70.1231 87.4315 82.691 74.6688 82.5503Z" stroke="#2C54AC" stroke-width="1.0333" stroke-miterlimit="10" stroke-dasharray="4.26 4.26"/>
</g>
<path d="M43.3121 16.799C43.3121 16.799 41.0173 22.9437 34.4362 28.9023C27.8551 34.8608 21.0073 39.1296 22.1633 45.2661C23.3194 51.4024 27.5883 51.2247 27.5883 51.2247C27.5883 51.2247 25.9875 57.361 32.3018 60.3849C38.6161 63.4085 43.5964 58.9618 43.5964 58.9618H50.889V17.7855L43.3121 16.799Z" fill="#00526D"/>
<path d="M59.9582 16.799C59.9582 16.799 62.253 22.9437 68.8341 28.9023C75.4152 34.8608 82.263 39.1296 81.107 45.2661C79.9509 51.4026 75.6819 51.2247 75.6819 51.2247C75.6819 51.2247 77.2828 57.361 70.9685 60.3849C64.6541 63.4085 59.6739 58.9618 59.6739 58.9618H52.3813V17.7855L59.9582 16.799Z" fill="#00526D"/>
<path d="M74.0496 88.9175C72.2413 87.5938 66.5263 87.1739 65.8483 86.6896C65.1702 86.2053 64.0641 83.9879 64.0641 83.9879L63.4791 83.4342L58.5188 87.3676L61.1989 89.9877C61.1989 89.9877 65.687 91.3067 70.4656 91.8233C72.8723 92.0835 74.8196 91.975 76.1895 91.7043C75.8896 90.9917 75.2448 89.7926 74.0496 88.9175Z" fill="#F0999A"/>
<path d="M73.081 85.947C71.0146 85.7534 65.6223 85.4627 65.6223 85.4627L64.0641 83.9881C64.0641 83.9881 65.1704 86.2055 65.8483 86.6898C66.5265 87.1741 72.2413 87.594 74.0496 88.9177C75.2448 89.7928 75.8896 90.9919 76.1895 91.7047C77.5396 91.4379 78.3286 91.0138 78.4409 90.6292C78.6669 89.854 75.1474 86.1406 73.081 85.947Z" fill="#00526D"/>
<path d="M32.8424 88.3648C34.6331 87.0536 40.2934 86.6379 40.965 86.1583C41.6365 85.6786 42.732 83.4826 42.732 83.4826L43.3115 82.9342L48.224 86.8299L45.5697 89.4249C45.5697 89.4249 41.1246 90.7313 36.3918 91.243C34.0081 91.5007 32.0796 91.3932 30.7228 91.1252C31.0203 90.419 31.6587 89.2315 32.8424 88.3648Z" fill="#F0999A"/>
<path d="M33.8019 85.4227C35.8485 85.2309 41.1889 84.9429 41.1889 84.9429L42.732 83.4824C42.732 83.4824 41.6365 85.6784 40.9649 86.1581C40.2934 86.6379 34.6333 87.0536 32.8424 88.3646C31.6587 89.2312 31.0201 90.419 30.723 91.1248C29.3859 90.8607 28.6043 90.4405 28.4933 90.0596C28.2696 89.2922 31.7553 85.6145 33.8019 85.4227Z" fill="#00526D"/>
<path d="M42.0407 62.4292L39.8233 68.6626C39.8233 68.6626 29.5795 65.2378 25.7255 70.4405C21.8716 75.6433 35.6802 83.6927 40.594 86.0051C45.5077 88.3174 60.6343 91.0152 60.6343 91.0152C60.6343 91.0152 61.6941 90.5334 62.465 88.7029C63.2358 86.8723 63.2358 84.7526 63.2358 84.7526C63.2358 84.7526 77.0078 78.1853 78.9347 71.9227C80.8616 65.6601 73.3465 66.1417 69.2036 67.009C65.0608 67.8761 64.0067 68.759 64.0067 68.759L61.3824 63.9509L42.0407 62.4292Z" fill="#00526D"/>
<path d="M63.2358 84.7526C62.1098 84.2963 60.9964 83.8112 59.8813 83.3287C58.7708 82.8366 57.6642 82.3352 56.5608 81.8262C55.4569 81.3184 54.3638 80.7873 53.2753 80.2466C52.1856 79.7083 51.1049 79.1506 50.0329 78.5755C48.9644 77.994 47.9167 77.3696 46.8846 76.7281C45.8523 76.0852 44.8302 75.4266 43.8273 74.7394C42.8231 74.0546 41.8283 73.3565 40.8443 72.6437C39.8668 71.9219 38.8901 71.1988 37.9411 70.4405C38.9318 71.1434 39.9249 71.8416 40.9308 72.5211C41.9313 73.2084 42.9395 73.8836 43.9577 74.5435C45.993 75.8635 48.0442 77.1623 50.1792 78.3071C52.3036 79.4747 54.4827 80.5457 56.6616 81.6146C57.7515 82.1488 58.8464 82.673 59.9433 83.1932L63.2358 84.7526Z" fill="#99DFE3"/>
<path d="M51.6504 79.1828L66.2863 69.2128L51.8249 79.4343L51.6504 79.1828Z" fill="#99DFE3"/>
<path d="M38.9622 66.804C38.3747 66.9845 37.7816 67.1427 37.1904 67.3091L35.4067 67.7685C34.2154 68.0674 33.0171 68.3375 31.8114 68.5789C30.6034 68.8146 29.3911 69.0113 28.1736 69.1776C27.5649 69.2596 26.9559 69.3387 26.3462 69.412C25.7352 69.4752 25.1252 69.5461 24.5124 69.5914L28.138 68.9514C29.3445 68.7324 30.5539 68.5278 31.7537 68.287C32.9561 68.054 34.154 67.7918 35.3558 67.5465L37.1568 67.168L38.9622 66.804Z" fill="#00526D"/>
<path d="M64.0011 66.804L65.8067 67.168L67.6078 67.5465C68.8096 67.792 70.0075 68.054 71.2099 68.287C72.4096 68.5278 73.6191 68.7322 74.8256 68.9514L78.4512 69.5914C77.8384 69.5461 77.2284 69.4752 76.6174 69.412C76.0076 69.3387 75.3987 69.2596 74.79 69.1776C73.5727 69.0115 72.3602 68.8146 71.1522 68.5789C69.9465 68.3375 68.7482 68.0674 67.5569 67.7685L65.7731 67.3091C65.1817 67.1429 64.5886 66.9845 64.0011 66.804Z" fill="#00526D"/>
<path d="M81.9547 65.786C81.9547 65.786 81.8018 63.7666 82.3051 63.0124C82.8083 62.2582 84.9594 61.2278 85.1792 61.4973C85.399 61.7667 85.3281 62.2994 84.94 62.5963C84.5519 62.8931 83.9463 63.0569 83.8233 63.294C83.7001 63.5311 83.7038 63.9112 84.1372 63.7985C84.5704 63.6858 87.6926 61.9943 87.755 61.7006C87.8174 61.4068 85.6981 62.3719 85.5296 61.7762C85.3611 61.1806 86.6273 60.7449 87.2231 60.5764C87.8188 60.4077 89.0396 60.8957 88.8317 61.8751C88.6239 62.8544 87.6316 63.5589 87.6316 63.5589C89.4856 62.8338 90.8058 61.3121 92.3863 60.1016C92.4839 60.0268 92.6242 59.9525 92.7192 60.0305C92.7839 60.0837 92.7874 60.1805 92.7783 60.2635C92.7324 60.6838 92.5426 61.0888 92.2678 61.4099C91.011 62.8799 90.0673 63.7699 88.5913 64.6507C90.4353 64.0127 91.8017 62.895 93.4204 61.8054C93.5148 61.742 93.6229 61.6763 93.7348 61.6977C93.8011 62.0702 93.564 62.4236 93.3248 62.7166C92.1881 64.1083 90.749 64.9776 89.0993 65.6902C90.4237 65.5272 92.7019 64.0461 92.8998 64.3596C93.0978 64.6732 92.3164 65.3626 92.0346 65.5651C91.6408 65.848 91.203 66.0637 90.7607 66.2625C88.8781 67.1085 85.9764 67.9949 83.7796 68.415C81.5828 68.835 80.5815 68.8026 80.5815 68.8026L80.9691 65.7013L81.9547 65.786Z" fill="#F0999A"/>
<path d="M89.218 65.6146C88.8332 65.7792 88.3961 65.7934 87.9832 65.7594C87.5671 65.7289 87.1601 65.6556 86.7561 65.6438C85.9508 65.6107 85.147 65.8898 84.4957 66.3997C84.774 66.0919 85.1281 65.8467 85.5195 65.6883C85.9097 65.5266 86.3381 65.4512 86.7621 65.4667C87.1852 65.483 87.5929 65.5649 87.9981 65.6224C88.402 65.6776 88.8124 65.7124 89.218 65.6146Z" fill="#00526D"/>
<path d="M21.0584 65.786C21.0584 65.786 21.2112 63.7666 20.708 63.0124C20.2049 62.2582 18.0536 61.2278 17.8338 61.4973C17.614 61.7667 17.6851 62.2994 18.073 62.5963C18.4611 62.8931 19.0668 63.0569 19.1899 63.294C19.3129 63.5311 19.3094 63.9112 18.876 63.7985C18.4428 63.6858 15.3206 61.9943 15.2582 61.7006C15.1958 61.4068 17.3151 62.3719 17.4836 61.7762C17.6522 61.1806 16.3859 60.7449 15.7903 60.5764C15.1946 60.4077 13.9738 60.8957 14.1817 61.8751C14.3895 62.8544 15.3818 63.5589 15.3818 63.5589C13.5278 62.8338 12.2076 61.3121 10.6271 60.1016C10.5295 60.0268 10.3892 59.9525 10.294 60.0305C10.2294 60.0837 10.2258 60.1805 10.2349 60.2635C10.2809 60.6838 10.4706 61.0888 10.7454 61.4099C12.0022 62.8799 12.9459 63.7699 14.4219 64.6507C12.5778 64.0127 11.2116 62.895 9.59281 61.8054C9.49846 61.742 9.39031 61.6763 9.27846 61.6977C9.21212 62.0702 9.44923 62.4236 9.6884 62.7166C10.8251 64.1083 12.2642 64.9776 13.9139 65.6902C12.5895 65.5272 10.3113 64.0461 10.1134 64.3596C9.91541 64.6732 10.6968 65.3626 10.9786 65.5651C11.3724 65.848 11.8102 66.0637 12.2525 66.2625C14.1351 67.1085 17.0368 67.9949 19.2336 68.415C21.4304 68.835 22.4318 68.8026 22.4318 68.8026L22.0441 65.7013L21.0584 65.786Z" fill="#F0999A"/>
<path d="M13.7952 65.6146C14.2006 65.7122 14.611 65.6776 15.0154 65.6222C15.4206 65.5647 15.8284 65.4827 16.2516 65.4665C16.6755 65.451 17.104 65.5264 17.4942 65.6881C17.8856 65.8467 18.2397 66.0919 18.518 66.3994C17.8664 65.8896 17.0628 65.6105 16.2573 65.6436C15.8532 65.6554 15.4461 65.7287 15.0302 65.7592C14.6172 65.7934 14.1798 65.7792 13.7952 65.6146Z" fill="#00526D"/>
<path d="M54.7041 36.9013L54.0212 32.1633H51.4817H48.9423L48.2592 36.9013L51.6473 38.2819L54.7041 36.9013Z" fill="#F0999A"/>
<path d="M68.5737 62.6842C68.5737 62.6842 66.5429 45.3664 65.022 43.0879C63.5012 40.8093 54.7041 36.9013 54.7041 36.9013L51.6471 38.2819L48.2592 36.9013C48.2592 36.9013 39.462 40.8093 37.9413 43.0879C36.4206 45.3664 34.3896 62.6842 34.3896 62.6842L21.5367 65.7225L21.9188 69.824C21.9188 69.824 26.094 69.4441 28.8802 69.2128C31.6663 68.9815 38.9624 66.804 38.9624 66.804L41.579 55.6372L41.0364 65.2529C41.0364 65.2529 46.7091 68.5132 51.8127 68.5132C56.9164 68.5132 62.0641 65.1954 62.0641 65.1954L61.3847 55.6374L64.0013 66.8042C64.0013 66.8042 71.2974 68.9817 74.0836 69.213C76.8697 69.4443 81.0449 69.8242 81.0449 69.8242L81.4271 65.7227L68.5737 62.6842Z" fill="#00AFB9"/>
<path d="M60.57 20.6524C60.57 26.9311 56.568 27.0637 51.6314 27.0637C46.6948 27.0637 42.6929 26.9309 42.6929 20.6524C42.6929 14.3737 46.6948 11.5037 51.6314 11.5037C56.568 11.5037 60.57 14.3737 60.57 20.6524Z" fill="#00526D"/>
<path d="M59.6051 22.0124C59.6051 27.6134 56.0351 34.1339 51.6314 34.1339C47.2275 34.1339 43.6578 27.6134 43.6578 22.0124C43.6578 16.4115 47.2278 13.8513 51.6314 13.8513C56.0353 13.8513 59.6051 16.4115 59.6051 22.0124Z" fill="#F0999A"/>
<path d="M46.9565 22.9639C47.1589 23.2729 47.3635 23.5692 47.6039 23.8122C47.8412 24.0568 48.1226 24.2321 48.4112 24.2331C48.6998 24.2368 48.98 24.064 49.2157 23.8184C49.4538 23.5741 49.6546 23.2754 49.8534 22.9639C49.8021 23.3321 49.6695 23.6913 49.4447 24.0077C49.3329 24.1666 49.1946 24.3136 49.0193 24.4286C48.8426 24.5405 48.6283 24.6084 48.4085 24.6136C48.1883 24.6064 47.9766 24.5334 47.8019 24.4212C47.6272 24.3066 47.4894 24.16 47.3771 24.0022C47.1507 23.688 47.0131 23.3312 46.9565 22.9639Z" fill="#00526D"/>
<path d="M53.847 22.9639C54.0495 23.2729 54.254 23.5692 54.4942 23.8122C54.7315 24.0568 55.0129 24.2321 55.3015 24.2331C55.5901 24.2368 55.8703 24.064 56.106 23.8184C56.3441 23.5741 56.5449 23.2754 56.7437 22.9639C56.6924 23.3321 56.5598 23.6913 56.335 24.0077C56.2234 24.1666 56.0849 24.3136 55.9096 24.4286C55.7329 24.5405 55.5186 24.6084 55.2988 24.6136C55.0786 24.6064 54.8669 24.5334 54.6922 24.4212C54.5175 24.3066 54.3797 24.16 54.2674 24.0022C54.0414 23.688 53.9038 23.3312 53.847 22.9639Z" fill="#00526D"/>
<path d="M45.3348 22.4574C45.5443 22.0258 45.8381 21.6328 46.1823 21.2852C46.5331 20.9447 46.9398 20.6549 47.3872 20.4349C47.8328 20.219 48.3159 20.026 48.8234 20.021C49.3253 20.0126 49.8345 20.1069 50.2677 20.3615L50.2556 20.4151C49.7638 20.4594 49.3152 20.4928 48.8725 20.5686C48.4355 20.6481 47.9867 20.6845 47.5592 20.8397C47.1338 20.9905 46.728 21.2121 46.3626 21.4929C45.9903 21.7669 45.6632 22.1055 45.382 22.4858L45.3348 22.4574Z" fill="#00526D"/>
<path d="M57.6503 22.4858C57.3692 22.1055 57.0418 21.7669 56.6698 21.4929C56.3043 21.2121 55.8985 20.9905 55.4729 20.8397C55.0455 20.6848 54.5966 20.6481 54.1597 20.5686C53.717 20.4928 53.2683 20.4594 52.7766 20.4151L52.7644 20.3615C53.1977 20.1069 53.7069 20.0126 54.2087 20.021C54.7163 20.0258 55.1994 20.219 55.6449 20.4349C56.0924 20.6549 56.499 20.9445 56.8498 21.2852C57.1941 21.6326 57.4878 22.0258 57.6973 22.4572L57.6503 22.4858Z" fill="#00526D"/>
<path d="M48.0427 32.6457C48.6401 32.9887 49.2507 33.2934 49.88 33.5324C50.5079 33.7643 51.164 33.9388 51.8086 33.9135C52.1295 33.9027 52.4538 33.8393 52.7708 33.7456C53.0905 33.6584 53.4014 33.5321 53.711 33.4001C54.3269 33.1261 54.9245 32.7967 55.5123 32.4368C55.0224 32.9247 54.4565 33.3356 53.8437 33.6702C53.2308 34.0006 52.5549 34.2604 51.8232 34.2956C51.0911 34.3147 50.3948 34.1028 49.7644 33.8049C49.1333 33.5035 48.5488 33.1164 48.0427 32.6457Z" fill="#00526D"/>
<path d="M43.0287 24.0564C43.0287 24.0564 44.7846 23.171 45.1754 21.8357C45.5662 20.5004 45.3381 18.5788 45.3381 18.5788C45.3381 18.5788 46.0871 19.2302 47.6179 18.7743C49.1485 18.3184 49.6046 16.7876 49.6046 16.7876C49.6046 16.7876 50.4187 18.4812 52.4379 18.4161C54.4571 18.351 54.9458 16.7876 54.9458 16.7876C54.9458 16.7876 54.9458 18.0904 55.9228 18.8069C56.8999 19.5233 58.0722 19.4257 58.0722 19.4257C58.0722 19.4257 57.714 20.761 58.3003 22.1939C58.8865 23.6268 59.7657 24.3759 59.7657 24.3759L60.1891 20.4351L57.4208 14.5729L50.2885 13.0096L44.2309 16.0384L43.0287 24.0564Z" fill="#00526D"/>
<path d="M44.1773 23.2023C43.8539 22.7544 43.2497 22.4514 42.7236 22.6401C42.3381 22.7783 42.0825 23.1399 41.9193 23.5086C41.4148 24.6488 41.6272 26.0968 42.5427 26.9572C42.7885 27.1882 43.0929 27.3806 43.4324 27.4088C44.0366 27.4591 44.5747 26.9626 44.7673 26.4C44.9424 25.8887 44.9591 25.233 44.7762 24.7224C44.5951 24.2164 44.4993 23.6481 44.1773 23.2023Z" fill="#F0999A"/>
<path d="M43.8601 26.8841C43.6646 26.7251 43.4722 26.511 43.4332 26.2132C43.427 26.1656 43.4254 26.1139 43.4433 26.0702C43.4598 26.0296 43.4905 26.0018 43.5206 25.9771C43.7243 25.8088 43.9544 25.6957 44.1903 25.6481C44.167 25.162 44.141 24.6612 43.974 24.2327C43.8069 23.8042 43.461 23.4616 43.0834 23.5199C42.788 23.5655 42.5188 23.8701 42.4432 24.2438C42.4432 24.2438 42.1906 24.9708 42.5371 25.8448C42.8834 26.7189 43.8601 26.8841 43.8601 26.8841Z" fill="#F07167"/>
<path d="M42.4432 24.2438C42.4673 23.9393 42.63 23.6091 42.9568 23.4631C43.1214 23.3901 43.3206 23.4037 43.4827 23.4767C43.6469 23.5484 43.7777 23.6678 43.8823 23.7995C44.0978 24.0654 44.1911 24.3946 44.2507 24.705C44.3013 25.0211 44.3176 25.3342 44.3205 25.6419L44.3215 25.7579L44.2158 25.776C44.0797 25.7993 43.946 25.8461 43.8183 25.9085C43.7546 25.9402 43.6928 25.9771 43.6333 26.0177C43.6048 26.0379 43.5704 26.0611 43.5519 26.0766C43.5325 26.0939 43.5251 26.1021 43.5181 26.125C43.5053 26.1714 43.5152 26.2513 43.5278 26.3174C43.541 26.3864 43.5645 26.4544 43.5962 26.5199C43.6592 26.6515 43.7546 26.7718 43.8599 26.8843C43.7293 26.8032 43.6042 26.7041 43.5088 26.5728C43.4615 26.5075 43.4211 26.435 43.3912 26.3572C43.3648 26.2766 43.3387 26.2035 43.3461 26.097C43.3498 26.0438 43.3803 25.9814 43.4151 25.9445C43.4503 25.9054 43.4777 25.8832 43.5095 25.856C43.5715 25.8038 43.6374 25.7552 43.7068 25.7116C43.8452 25.6232 44.0004 25.5577 44.1643 25.5202L44.0599 25.6541C44.0333 25.3482 44.0191 25.0452 43.9647 24.7547C43.9163 24.4636 43.8323 24.1839 43.6739 23.9558C43.5175 23.7307 43.2736 23.5552 43.0144 23.6268C42.7563 23.7012 42.5431 23.955 42.4432 24.2438Z" fill="#00526D"/>
<path d="M59.1317 23.2023C59.4551 22.7544 60.0593 22.4514 60.5854 22.6401C60.971 22.7783 61.2265 23.1399 61.3896 23.5086C61.8941 24.6488 61.6817 26.0968 60.7663 26.9572C60.5205 27.1882 60.2161 27.3806 59.8766 27.4088C59.2724 27.4591 58.7343 26.9626 58.5417 26.4C58.3666 25.8887 58.3499 25.233 58.5328 24.7224C58.7139 24.2164 58.8097 23.6481 59.1317 23.2023Z" fill="#F0999A"/>
<path d="M59.4487 26.8841C59.6442 26.7251 59.8368 26.511 59.8755 26.2132C59.8817 26.1656 59.8833 26.1139 59.8654 26.0702C59.8489 26.0296 59.8183 26.0018 59.7882 25.9771C59.5842 25.8088 59.3543 25.6957 59.1185 25.6481C59.1415 25.162 59.1677 24.6612 59.3348 24.2327C59.5018 23.8042 59.8477 23.4616 60.2253 23.5199C60.5207 23.5655 60.7902 23.8701 60.8656 24.2438C60.8656 24.2438 61.1181 24.9708 60.7718 25.8448C60.4255 26.7189 59.4487 26.8841 59.4487 26.8841Z" fill="#F07167"/>
<path d="M60.8658 24.2438C60.7659 23.9552 60.5526 23.7012 60.2945 23.6271C60.0352 23.5554 59.7913 23.7309 59.6351 23.956C59.4765 24.1841 59.3927 24.4638 59.3443 24.7549C59.2899 25.0454 59.2757 25.3482 59.2491 25.6543L59.1446 25.5204C59.3086 25.5579 59.4637 25.6234 59.6022 25.7118C59.6716 25.7554 59.7373 25.8041 59.7995 25.8562C59.831 25.8834 59.8586 25.9058 59.8939 25.945C59.9287 25.9818 59.9592 26.0443 59.9629 26.0974C59.9701 26.2039 59.9439 26.277 59.9178 26.3576C59.8881 26.4354 59.8477 26.508 59.8001 26.5733C59.7048 26.7045 59.5797 26.8036 59.4491 26.8847C59.5544 26.7723 59.6498 26.652 59.7128 26.5203C59.7447 26.4548 59.768 26.3868 59.7812 26.3178C59.7937 26.2517 59.8038 26.1716 59.7909 26.1254C59.7839 26.1023 59.7764 26.0943 59.7571 26.077C59.7385 26.0616 59.7041 26.0383 59.6757 26.0181C59.6162 25.9773 59.5544 25.9406 59.4907 25.9089C59.3628 25.8465 59.2293 25.7997 59.0931 25.7765L58.9875 25.7583L58.9887 25.6423C58.9916 25.3346 59.0079 25.0215 59.0585 24.7055C59.1181 24.395 59.2114 24.0658 59.4269 23.7999C59.5315 23.6683 59.6623 23.5488 59.8265 23.4771C59.9886 23.404 60.1878 23.3906 60.3524 23.4635C60.6789 23.6089 60.8417 23.9393 60.8658 24.2438Z" fill="#00526D"/>
<path d="M51.0561 31.5065C51.185 31.661 51.5033 31.7708 51.8778 31.7708C52.2292 31.7708 52.53 31.6738 52.6725 31.5344C52.4909 31.4371 52.2338 31.3556 51.8778 31.3556C51.5173 31.3556 51.2491 31.4248 51.0561 31.5065Z" fill="#F07167"/>
<path d="M52.762 31.3556C52.762 31.1263 52.3662 30.9403 51.8778 30.9403C51.3896 30.9403 50.9937 31.1261 50.9937 31.3556C50.9937 31.4089 51.0169 31.4596 51.0561 31.5065C51.2491 31.4248 51.5173 31.3556 51.8778 31.3556C52.2338 31.3556 52.4909 31.4371 52.6726 31.5344C52.7282 31.48 52.762 31.4198 52.762 31.3556Z" fill="#00526D"/>
<path d="M52.0772 22.2732L52.1631 24.2809C52.181 24.614 52.1955 24.9469 52.2307 25.2744C52.2476 25.4378 52.2659 25.6011 52.2987 25.754C52.3285 25.9007 52.3891 26.0313 52.475 26.1683C52.6392 26.442 52.858 26.7051 53.0228 27.0174C53.1886 27.3225 53.2963 27.7063 53.2139 28.068C53.2028 28.1595 53.1628 28.2421 53.1379 28.3284C53.0959 28.4087 53.0683 28.4946 53.0118 28.5673C52.9169 28.721 52.7795 28.8508 52.6229 28.9379C52.304 29.1069 51.9345 29.1198 51.6141 29.021C51.9454 29.0547 52.2921 29.0018 52.5453 28.8143C52.6719 28.7243 52.7764 28.6067 52.8442 28.4674C52.8854 28.403 52.9043 28.3243 52.936 28.2546C52.9511 28.1786 52.9822 28.1059 52.9849 28.0293C53.0267 27.7262 52.9389 27.4255 52.7756 27.1529C52.6209 26.8748 52.4066 26.6204 52.2208 26.323C52.1298 26.1755 52.0488 25.9981 52.0144 25.8148C51.9806 25.6393 51.9608 25.4691 51.9505 25.2987C51.9303 24.9584 51.9221 24.6214 51.9316 24.2846C51.9423 23.611 51.9936 22.9405 52.0772 22.2732Z" fill="#00526D"/>
<path d="M44.8985 29.3065C44.8985 29.6977 44.5813 30.0149 44.1901 30.0149C43.7989 30.0149 43.4817 29.6977 43.4817 29.3065C43.4817 28.9153 43.7989 28.598 44.1901 28.598C44.5815 28.598 44.8985 28.9153 44.8985 29.3065Z" fill="#EEEEFF"/>
<path d="M44.387 27.1731C44.387 27.2819 44.2989 27.3701 44.1901 27.3701C44.0813 27.3701 43.9932 27.2819 43.9932 27.1731C43.9932 27.0644 44.0813 26.9762 44.1901 26.9762C44.2989 26.9762 44.387 27.0644 44.387 27.1731Z" fill="#EEEEFF"/>
<path d="M44.1901 27.1731V29.2356" stroke="#EEEEFF" stroke-width="0.4817" stroke-miterlimit="10"/>
<path d="M59.9289 29.3065C59.9289 29.6977 59.6117 30.0149 59.2205 30.0149C58.8293 30.0149 58.512 29.6977 58.512 29.3065C58.512 28.9153 58.8293 28.598 59.2205 28.598C59.6117 28.598 59.9289 28.9153 59.9289 29.3065Z" fill="#EEEEFF"/>
<path d="M59.4174 27.1731C59.4174 27.2819 59.3292 27.3701 59.2205 27.3701C59.1117 27.3701 59.0235 27.2819 59.0235 27.1731C59.0235 27.0644 59.1117 26.9762 59.2205 26.9762C59.3292 26.9762 59.4174 27.0644 59.4174 27.1731Z" fill="#EEEEFF"/>
<path d="M59.2205 27.1731V29.2356" stroke="#EEEEFF" stroke-width="0.4817" stroke-miterlimit="10"/>
<path d="M43.3286 42.4163C42.9846 42.9031 42.6601 43.4022 42.3567 43.9131C42.0547 44.4246 41.7581 44.939 41.5003 45.4727C41.2377 46.0036 41.0016 46.5466 40.8004 47.1005C40.5917 47.6522 40.439 48.2218 40.3266 48.7953L40.2575 49.2281C40.2378 49.3727 40.2332 49.5192 40.2203 49.6646L40.2038 49.8832L40.2021 50.1026C40.203 50.2488 40.1964 50.3953 40.2032 50.5416C40.2248 51.1274 40.3107 51.7098 40.4275 52.2862C40.6811 53.4326 41.0776 54.5637 41.6435 55.5974L41.6565 55.6213L41.6546 55.6421L41.5525 56.7327C41.5193 57.0963 41.4832 57.4597 41.4433 57.8228C41.4486 57.4576 41.4577 57.0924 41.4697 56.7275L41.5028 55.6327L41.5139 55.6771C41.1996 55.1603 40.939 54.6208 40.711 54.0642C40.4831 53.5082 40.2944 52.9345 40.1609 52.3461C40.0254 51.7586 39.938 51.1585 39.9104 50.5533C39.8938 49.9487 39.9205 49.3383 40.0415 48.7426C40.1587 48.1483 40.3276 47.5657 40.553 47.0076C40.656 46.7246 40.7835 46.4523 40.9062 46.1783C41.0418 45.9105 41.1687 45.6384 41.317 45.378C41.8872 44.3241 42.5615 43.3295 43.3286 42.4163Z" fill="#00526D"/>
<path d="M59.6541 42.4163C60.4213 43.3293 61.0957 44.3239 61.6657 45.3778C61.814 45.6382 61.9409 45.9103 62.0765 46.1781C62.1995 46.4521 62.3268 46.7244 62.4298 47.0074C62.6551 47.5655 62.824 48.1481 62.9413 48.7424C63.0624 49.3381 63.089 49.9485 63.0723 50.5531C63.0449 51.1583 62.9571 51.7582 62.8216 52.3457C62.6883 52.9341 62.499 53.5076 62.2711 54.0635C62.0431 54.6202 61.7825 55.1597 61.4681 55.6765L61.4791 55.6331C61.4933 56.3506 61.5164 57.0676 61.5205 57.786C61.4467 57.0716 61.3921 56.3563 61.3285 55.6413L61.3266 55.6211L61.3394 55.5976C61.9057 54.5639 62.3014 53.4326 62.555 52.2862C62.6718 51.71 62.7575 51.1274 62.7791 50.5416C62.7859 50.3953 62.7793 50.2488 62.7802 50.1026L62.7785 49.8832L62.7618 49.6646C62.7489 49.5192 62.7443 49.3727 62.7245 49.2281L62.6555 48.7953C62.5433 48.2218 62.3902 47.6522 62.1817 47.1005C61.9807 46.5466 61.7444 46.0034 61.4817 45.4727C61.2238 44.9392 60.9274 44.4246 60.6254 43.9131C60.3226 43.4022 59.9981 42.9033 59.6541 42.4163Z" fill="#00526D"/>
<g opacity="0.3">
<path d="M52.2148 11.6461C52.0655 12.5609 51.6424 13.456 50.942 14.1022C50.2494 14.7487 49.267 15.1052 48.3074 14.98L48.4135 14.9217C48.1888 15.4167 47.8563 15.8584 47.4624 16.2261C47.0657 16.5907 46.6164 16.9016 46.1213 17.1137C45.6284 17.3274 45.1016 17.4664 44.5663 17.4963C44.2999 17.5165 44.0272 17.5002 43.7668 17.4339C43.508 17.3675 43.2567 17.2299 43.1041 17.0103C43.2763 17.2143 43.5266 17.3269 43.78 17.3774C44.036 17.4264 44.2989 17.4238 44.558 17.3906C45.0782 17.3418 45.5841 17.1867 46.0521 16.9621C46.5228 16.7419 46.9552 16.443 47.3304 16.0866C47.7075 15.7309 48.0054 15.3001 48.2298 14.8383L48.2633 14.7693L48.3358 14.78C48.779 14.8457 49.2381 14.796 49.6666 14.6549C50.0953 14.5128 50.4956 14.2833 50.8416 13.9895C51.533 13.3921 51.9886 12.5438 52.2148 11.6461Z" fill="#EEEEFF"/>
<path d="M52.536 11.6947C52.6792 12.2144 52.8371 12.7307 53.0617 13.2164C53.2796 13.7034 53.5645 14.1613 53.9316 14.5398C54.2946 14.918 54.7437 15.2167 55.236 15.392C55.7271 15.5683 56.2646 15.6124 56.7652 15.4872L56.8624 15.4629L56.89 15.5576C57.0105 15.9706 57.2046 16.3625 57.4548 16.7147C57.707 17.0655 58.0092 17.3822 58.3526 17.6487C58.6974 17.9138 59.0847 18.1238 59.4942 18.2766C59.5958 18.3176 59.7 18.3514 59.8059 18.38C59.9106 18.4142 60.0181 18.4358 60.1256 18.4585C60.233 18.4834 60.3413 18.5022 60.4503 18.504C60.5582 18.5065 60.6715 18.488 60.7611 18.4206C60.6777 18.4956 60.5621 18.5261 60.4509 18.5331C60.3384 18.5407 60.2264 18.5269 60.117 18.5096C60.0068 18.4939 59.8959 18.4789 59.7878 18.4513C59.6782 18.429 59.5698 18.4017 59.4636 18.3668C59.0355 18.2358 58.6303 18.0298 58.2617 17.7715C57.5239 17.2542 56.9615 16.4844 56.6922 15.6159L56.8171 15.6864C56.2708 15.8374 55.6859 15.7729 55.1676 15.5797C54.6475 15.385 54.1762 15.068 53.8033 14.659C53.4348 14.2475 53.1616 13.764 52.9593 13.2599C52.7626 12.7523 52.6297 12.2256 52.536 11.6947Z" fill="#EEEEFF"/>
<path d="M55.4156 12.3129C55.639 12.736 55.8923 13.1377 56.1849 13.5073C56.479 13.8752 56.8022 14.2184 57.1599 14.5227C57.5144 14.8304 57.9021 15.0986 58.31 15.3343L58.6212 15.5026L58.9424 15.653L59.2701 15.7925C59.3822 15.8314 59.494 15.8728 59.6059 15.9163C59.4885 15.8946 59.3709 15.8709 59.2534 15.8448L58.9059 15.7478L58.567 15.6217L58.2358 15.4754C57.7991 15.2669 57.3939 14.9938 57.0249 14.6796C56.6593 14.3618 56.3284 14.0019 56.0571 13.6012L55.8627 13.2955L55.6874 12.9795L55.5393 12.6505C55.4956 12.5385 55.4546 12.4256 55.4156 12.3129Z" fill="#EEEEFF"/>
<path d="M43.8259 15.4052C44.1172 15.4217 44.4076 15.4227 44.6946 15.3901C44.9816 15.364 45.2654 15.3131 45.5415 15.2358C46.0927 15.0822 46.6195 14.8434 47.0832 14.5132C47.5496 14.1869 47.9513 13.7708 48.2806 13.3029C48.4459 13.0689 48.5892 12.8186 48.71 12.557C48.8371 12.2977 48.9335 12.0239 49.0157 11.7437C48.9792 12.0338 48.9011 12.3183 48.8035 12.5962C48.6994 12.8716 48.568 13.1375 48.4137 13.3903C48.1045 13.8958 47.6878 14.3371 47.2022 14.6821C46.714 15.0235 46.1588 15.2682 45.5788 15.3897C45.2889 15.4503 44.9943 15.4851 44.7 15.4907C44.4056 15.4898 44.1114 15.468 43.8259 15.4052Z" fill="#EEEEFF"/>
<path d="M61.8074 23.3211C62.5836 25.4549 63.4744 27.5577 64.6647 29.4884C65.2588 30.4529 65.9456 31.3582 66.7104 32.1892C67.4735 33.0237 68.3525 33.7421 69.2568 34.4247C70.1611 35.1089 71.0956 35.7586 71.9822 36.4773C72.8649 37.1979 73.7054 37.9877 74.392 38.9089C74.7358 39.3681 75.0341 39.8621 75.2769 40.3839C75.5174 40.9069 75.6865 41.4617 75.787 42.0284C75.8851 42.5957 75.896 43.1783 75.8218 43.7497C75.7429 44.3206 75.5612 44.8782 75.2829 45.3833L75.2784 45.3151C75.5946 45.7451 75.8678 46.2065 76.0863 46.6933C76.3049 47.1792 76.4652 47.6953 76.528 48.2263C76.6549 49.2932 76.1928 50.3994 75.3598 51.0566C76.1776 50.3801 76.6036 49.273 76.4553 48.2356C76.3826 47.7155 76.2095 47.2136 75.9907 46.7372C75.7693 46.2609 75.4943 45.8095 75.1779 45.3907L75.1538 45.3588L75.1731 45.3224C75.4368 44.8286 75.6059 44.286 75.6754 43.7306C75.7407 43.1746 75.7205 42.6089 75.6214 42.0572C75.5211 41.506 75.354 40.9659 75.1175 40.4575C74.8788 39.9503 74.5846 39.4674 74.2455 39.0187C73.5682 38.1179 72.7364 37.3419 71.8578 36.631C70.9798 35.9168 70.0509 35.2621 69.1454 34.572C68.2408 33.883 67.3544 33.1527 66.5856 32.3048C65.8145 31.4612 65.1395 30.5338 64.5526 29.557C63.371 27.6024 62.5346 25.4712 61.8074 23.3211Z" fill="#EEEEFF"/>
<path d="M61.2434 29.9372C61.6752 31.8716 62.4376 33.7241 63.4678 35.408C63.9809 36.2513 64.5697 37.0477 65.218 37.7904C65.8675 38.5326 66.5763 39.2223 67.2916 39.9066C68.0056 40.5924 68.7284 41.2744 69.393 42.0165C70.0584 42.7541 70.6733 43.5545 71.1263 44.4501C71.5714 45.3446 71.8934 46.3128 71.9742 47.3166C72.0722 48.3161 71.8825 49.3515 71.3988 50.2392L71.3918 50.1463C71.9177 50.8308 72.2747 51.6358 72.4648 52.4724C72.6544 53.31 72.676 54.1841 72.5248 55.0274C72.3748 55.8733 72.009 56.6744 71.4903 57.3517C70.9713 58.0286 70.2887 58.5838 69.5061 58.9171C70.2808 58.5657 70.946 57.9979 71.4437 57.3167C71.9433 56.635 72.2776 55.8372 72.4175 55.0087C72.5555 54.1781 72.5227 53.3209 72.3268 52.5043C72.1322 51.6875 71.7682 50.9122 71.2573 50.2497L71.2237 50.2062L71.2503 50.1568C71.7115 49.3 71.8918 48.3032 71.7925 47.3321C71.7101 46.3577 71.392 45.4124 70.9524 44.5387C70.5025 43.6676 69.9107 42.8761 69.2519 42.1427C68.5974 41.4055 67.8805 40.723 67.169 40.0341C66.4581 39.3448 65.7418 38.6539 65.0987 37.8936C64.4541 37.1357 63.8713 36.3257 63.3654 35.47C62.3412 33.7649 61.636 31.8778 61.2434 29.9372Z" fill="#EEEEFF"/>
<path d="M41.2521 23.3211C40.5247 25.4712 39.6886 27.6026 38.5072 29.557C37.9201 30.5336 37.2452 31.4612 36.4742 32.3048C35.7054 33.1527 34.8192 33.883 33.9144 34.572C33.0088 35.2621 32.08 35.9168 31.202 36.631C30.3236 37.3419 29.4916 38.1179 28.8143 39.0187C28.4752 39.4674 28.181 39.9505 27.9423 40.4575C27.7058 40.9659 27.5387 41.5062 27.4384 42.0572C27.3393 42.6087 27.3191 43.1746 27.3844 43.7306C27.4538 44.286 27.623 44.8286 27.8866 45.3224L27.906 45.3588L27.8819 45.3907C27.5655 45.8093 27.2903 46.2609 27.069 46.7372C26.8501 47.2136 26.677 47.7155 26.6045 48.2356C26.4562 49.273 26.8822 50.3801 27.7 51.0566C26.8667 50.3992 26.4049 49.2932 26.5318 48.2263C26.5946 47.6953 26.7549 47.1794 26.9734 46.6933C27.192 46.2065 27.465 45.7451 27.7814 45.3151L27.7768 45.3833C27.4985 44.8782 27.3168 44.3208 27.2379 43.7497C27.164 43.1783 27.1747 42.5957 27.273 42.0284C27.3735 41.4617 27.5426 40.9069 27.783 40.3839C28.0259 39.8621 28.3242 39.3681 28.668 38.9089C29.3546 37.9877 30.1951 37.1979 31.0776 36.4773C31.9642 35.7584 32.8986 35.1087 33.803 34.4247C34.7073 33.7421 35.5863 33.0235 36.3493 32.1892C37.1142 31.358 37.8012 30.4529 38.3951 29.4884C39.5852 27.5577 40.4759 25.4549 41.2521 23.3211Z" fill="#EEEEFF"/>
<path d="M41.8162 29.9372C41.4235 31.8778 40.7184 33.7649 39.6939 35.4696C39.1882 36.3253 38.6054 37.1353 37.9607 37.8932C37.3175 38.6535 36.6013 39.3444 35.8904 40.0337C35.1788 40.7226 34.4622 41.4053 33.8075 42.1423C33.1487 42.8757 32.5571 43.6671 32.107 44.5383C31.6676 45.412 31.3493 46.3573 31.2669 47.3317C31.1676 48.3028 31.3479 49.2996 31.8091 50.1563L31.8357 50.2058L31.8021 50.2493C31.2912 50.9117 30.9272 51.6871 30.7325 52.5039C30.5366 53.3205 30.5039 54.1777 30.6419 55.0083C30.7818 55.8368 31.1161 56.6346 31.6157 57.3163C32.1136 57.9975 32.7785 58.5653 33.5533 58.9167C32.7707 58.5832 32.0878 58.0282 31.5691 57.3513C31.0504 56.6738 30.6847 55.8728 30.5346 55.027C30.3834 54.1836 30.405 53.3094 30.5945 52.472C30.7846 51.6354 31.1416 50.8306 31.6676 50.1458L31.6606 50.2387C31.1769 49.3509 30.9871 48.3155 31.0852 47.3162C31.1662 46.3124 31.4879 45.3444 31.9331 44.4497C32.3861 43.5543 33.0012 42.7537 33.6664 42.016C34.3309 41.274 35.0536 40.592 35.7678 39.9062C36.4832 39.2219 37.1919 38.5322 37.8414 37.79C38.4897 37.0471 39.0784 36.2509 39.5916 35.4076C40.622 33.7241 41.3844 31.8716 41.8162 29.9372Z" fill="#EEEEFF"/>
</g>
<path d="M54.3407 34.5751C54.3407 34.5751 53.4317 35.1558 51.5377 35.1558C49.6439 35.1558 48.5328 34.5751 48.5328 34.5751C48.5328 34.5751 47.8985 34.7607 47.4694 35.7707C47.0908 36.6615 47.112 37.4523 47.112 37.4523C47.112 37.4523 49.4419 39.0952 51.4872 39.0952C53.5326 39.0952 55.7547 37.3782 55.7547 37.3782C55.7547 37.3782 55.7296 36.7721 55.3254 35.8126C54.9215 34.8528 54.3407 34.5751 54.3407 34.5751Z" fill="#0081A7"/>
<path d="M51.4545 35.19C51.5326 35.8369 51.5505 36.4839 51.5536 37.1308C51.5507 37.7776 51.533 38.4246 51.4545 39.0715C51.376 38.4246 51.3581 37.7776 51.3554 37.1308C51.3585 36.4839 51.3764 35.8371 51.4545 35.19Z" fill="#00526D"/>
<path d="M50.7697 35.1694C50.648 35.7996 50.5388 36.4201 50.4807 37.0488C50.4171 37.6771 50.4047 38.3066 50.4022 38.9487C50.2483 38.3241 50.2234 37.6709 50.2832 37.0296C50.3485 36.389 50.4988 35.7528 50.7697 35.1694Z" fill="#00526D"/>
<path d="M50.0908 35.0586C49.8846 35.6645 49.7284 36.2715 49.6547 36.8937C49.576 37.5154 49.5803 38.142 49.6332 38.7798C49.4254 38.1721 49.3813 37.5104 49.4579 36.8693C49.5391 36.2291 49.7424 35.5979 50.0908 35.0586Z" fill="#00526D"/>
<path d="M49.308 34.8322C49.0785 35.3886 48.8883 35.9452 48.7686 36.5216C48.644 37.097 48.5913 37.6826 48.5742 38.2844C48.4343 37.6966 48.4508 37.0743 48.5748 36.4804C48.7033 35.8876 48.9415 35.3124 49.308 34.8322Z" fill="#00526D"/>
<path d="M48.7408 34.6083C48.5478 34.8324 48.4316 35.0955 48.3208 35.3616C48.2114 35.6284 48.1165 35.8997 48.0404 36.1764C47.962 36.4524 47.903 36.7338 47.8571 37.0185C47.8346 37.161 47.8161 37.3044 47.8005 37.449C47.7926 37.5213 47.7836 37.5938 47.7784 37.6668L47.7702 37.7764C47.7679 37.7945 47.7665 37.8116 47.7745 37.8225C47.7792 37.8275 47.7842 37.8305 47.7885 37.8231C47.7922 37.818 47.7939 37.8023 47.7827 37.8066C47.8103 37.7976 47.7926 37.8579 47.7648 37.8338C47.7452 37.8186 47.7434 37.7947 47.7401 37.7774L47.7257 37.6676C47.716 37.5943 47.71 37.5205 47.7032 37.4468C47.6958 37.2991 47.6935 37.1503 47.703 37.002C47.7185 36.7052 47.7712 36.4104 47.8493 36.1228C47.9321 35.8367 48.0392 35.5569 48.1811 35.2955C48.3173 35.0349 48.4945 34.7754 48.7408 34.6083Z" fill="#00526D"/>
<path d="M52.1159 35.2226C52.3868 35.806 52.5372 36.4421 52.6025 37.0828C52.6622 37.724 52.6373 38.3773 52.4834 39.0019C52.481 38.36 52.4686 37.7302 52.405 37.1019C52.3469 36.4732 52.2377 35.8527 52.1159 35.2226Z" fill="#00526D"/>
<path d="M52.7949 35.1118C53.1433 35.6513 53.3466 36.2822 53.428 36.9227C53.5046 37.5636 53.4603 38.2254 53.2527 38.8331C53.3056 38.1954 53.3099 37.5685 53.2312 36.947C53.1573 36.3247 53.0011 35.7174 52.7949 35.1118Z" fill="#00526D"/>
<path d="M53.5777 34.8854C53.9442 35.3655 54.1823 35.9407 54.3111 36.5336C54.4351 37.1275 54.4514 37.7498 54.3117 38.3375C54.2944 37.7358 54.2419 37.1501 54.1172 36.5748C53.9973 35.9984 53.8072 35.442 53.5777 34.8854Z" fill="#00526D"/>
<path d="M54.1448 34.6614C54.3914 34.8287 54.5686 35.0881 54.7043 35.3489C54.8463 35.6103 54.9536 35.89 55.0362 36.1762C55.1143 36.4635 55.167 36.7583 55.1825 37.0554C55.1919 37.2037 55.1897 37.3524 55.1823 37.5001C55.1753 37.5741 55.1695 37.6478 55.1598 37.7209L55.1454 37.8307C55.1421 37.8481 55.1404 37.8719 55.1209 37.8872C55.0933 37.9113 55.0753 37.8509 55.1029 37.86C55.0918 37.8557 55.0935 37.8713 55.0972 37.8765C55.1015 37.8839 55.1064 37.8806 55.1112 37.8757C55.119 37.8647 55.1178 37.8476 55.1153 37.8295L55.1071 37.7199C55.1019 37.647 55.0929 37.5745 55.0848 37.5022C55.0692 37.3576 55.0506 37.2142 55.0282 37.0716C54.9822 36.7869 54.9233 36.5055 54.8448 36.2295C54.7688 35.9529 54.6738 35.6815 54.5645 35.4148C54.4538 35.1486 54.3379 34.8856 54.1448 34.6614Z" fill="#00526D"/>
<g opacity="0.35">
<path d="M23.4335 65.2883C23.5856 66.008 23.6779 66.7338 23.7555 67.4612C23.8272 68.1892 23.8839 68.9186 23.8802 69.6542C23.7277 68.9345 23.6354 68.2087 23.5582 67.4814C23.4869 66.7534 23.4303 66.0239 23.4335 65.2883Z" fill="#00526D"/>
<path d="M79.2243 65.189C79.2108 65.9345 79.1376 66.6726 79.0499 67.4091C78.9561 68.1447 78.8474 68.8785 78.6786 69.6046C78.6916 68.8591 78.765 68.121 78.8531 67.3845C78.9471 66.6491 79.0558 65.9154 79.2243 65.189Z" fill="#00526D"/>
<path d="M33.2653 62.9481C33.7047 62.7879 34.1575 62.6686 34.6152 62.5711C35.073 62.4723 35.5385 62.4061 36.0097 62.3812C36.482 62.359 36.9544 62.3897 37.4179 62.4694C37.8808 62.5487 38.3391 62.6665 38.7661 62.8589C38.5397 62.8015 38.3131 62.7514 38.0841 62.7153C37.8562 62.6741 37.6274 62.6412 37.3975 62.62C36.9385 62.5775 36.4771 62.5528 36.0193 62.5794C35.56 62.599 35.101 62.6587 34.6418 62.7213C34.4121 62.7528 34.1828 62.7893 33.9542 62.8301C33.7241 62.8645 33.4956 62.9086 33.2653 62.9481Z" fill="#00526D"/>
<path d="M69.6878 62.9481C69.4575 62.9086 69.229 62.8645 68.9989 62.8299C68.7702 62.7891 68.541 62.7524 68.3113 62.7211C67.8521 62.6585 67.3931 62.599 66.9338 62.5792C66.476 62.5526 66.0146 62.5773 65.5556 62.6198C65.3257 62.641 65.0969 62.6739 64.869 62.7151C64.6399 62.7512 64.4133 62.8012 64.187 62.8587C64.614 62.6663 65.0723 62.5485 65.5352 62.4692C65.9989 62.3897 66.4711 62.359 66.9434 62.381C67.4146 62.4061 67.8801 62.4721 68.3378 62.5709C68.7956 62.6686 69.2484 62.7879 69.6878 62.9481Z" fill="#00526D"/>
<path d="M56.2605 39.6823C56.3713 39.8376 56.4226 40.0049 56.4601 40.1748C56.4914 40.346 56.5083 40.5203 56.4652 40.7063C56.354 40.551 56.3025 40.3839 56.2656 40.2138C56.2347 40.0424 56.2178 39.8683 56.2605 39.6823Z" fill="#00526D"/>
<path d="M57.6122 41.7239C57.6225 41.5202 57.6878 41.3426 57.7657 41.1712C57.8493 41.0025 57.9462 40.84 58.0982 40.7038C58.0883 40.9078 58.023 41.0853 57.9447 41.2565C57.8609 41.425 57.7639 41.5876 57.6122 41.7239Z" fill="#00526D"/>
<path d="M57.3527 42.9593C57.5315 43.0866 57.66 43.2475 57.7766 43.4164C57.8881 43.5887 57.9872 43.7691 58.0356 43.9836C57.8564 43.8565 57.7278 43.6956 57.6116 43.5264C57.5006 43.354 57.4015 43.1736 57.3527 42.9593Z" fill="#00526D"/>
<path d="M59.2646 44.9394C59.2219 44.7534 59.2388 44.5793 59.2697 44.4079C59.3066 44.2378 59.3581 44.0705 59.4693 43.9154C59.5124 44.1014 59.4955 44.2757 59.4642 44.4469C59.4267 44.6168 59.3754 44.7841 59.2646 44.9394Z" fill="#00526D"/>
<path d="M55.1017 42.1392C55.243 42.2519 55.3295 42.3912 55.4033 42.5364C55.4715 42.6843 55.5263 42.8388 55.5263 43.0197C55.3846 42.9072 55.298 42.768 55.2247 42.6225C55.1569 42.4742 55.1019 42.3199 55.1017 42.1392Z" fill="#00526D"/>
<path d="M56.5334 45.2126C56.6337 45.385 56.6741 45.5648 56.7001 45.7465C56.7201 45.929 56.7252 46.1132 56.67 46.305C56.5693 46.1328 56.5289 45.9527 56.5034 45.771C56.484 45.5885 56.4786 45.4043 56.5334 45.2126Z" fill="#00526D"/>
<path d="M58.4453 46.305C58.5236 46.4302 58.5411 46.5553 58.5444 46.6805C58.5415 46.8058 58.524 46.9308 58.4453 47.056C58.3666 46.9308 58.3491 46.8058 58.346 46.6805C58.3493 46.5553 58.367 46.43 58.4453 46.305Z" fill="#00526D"/>
<path d="M59.8834 48.1499C59.8684 47.9542 59.9108 47.7785 59.9666 47.6075C60.0282 47.4386 60.1038 47.2742 60.2371 47.13C60.2525 47.3257 60.2101 47.5014 60.1539 47.6724C60.0919 47.8413 60.0163 48.0055 59.8834 48.1499Z" fill="#00526D"/>
<path d="M60.7061 50.5403C60.6895 50.3246 60.7307 50.1265 60.7857 49.9324C60.8466 49.7402 60.9216 49.5522 61.0551 49.3818C61.0722 49.5975 61.031 49.7956 60.9756 49.9895C60.9144 50.1819 60.8392 50.37 60.7061 50.5403Z" fill="#00526D"/>
<path d="M58.1095 49.1717C58.2105 49.3315 58.2513 49.4998 58.2781 49.67C58.2987 49.841 58.3046 50.014 58.25 50.1953C58.1487 50.0354 58.1077 49.8671 58.0815 49.697C58.0613 49.526 58.0554 49.3529 58.1095 49.1717Z" fill="#00526D"/>
<path d="M55.7826 47.8753C55.9158 48.1083 55.9898 48.3547 56.05 48.6043C56.1041 48.8553 56.1437 49.1095 56.1239 49.3773C55.9902 49.1443 55.9163 48.8979 55.8565 48.6482C55.8028 48.3971 55.763 48.1429 55.7826 47.8753Z" fill="#00526D"/>
<path d="M58.7866 53.2006C58.7483 53.0175 58.7809 52.8434 58.8359 52.6794C58.8966 52.5175 58.9819 52.3622 59.128 52.2448C59.1235 52.4314 59.0759 52.5886 59.0227 52.746C58.9638 52.9015 58.9008 53.0533 58.7866 53.2006Z" fill="#00526D"/>
<path d="M60.6299 53.6785C60.6139 53.5026 60.6542 53.3483 60.708 53.1992C60.7675 53.0523 60.8409 52.9106 60.9713 52.7909C60.9878 52.967 60.9474 53.1213 60.8932 53.2702C60.8333 53.4171 60.7599 53.5589 60.6299 53.6785Z" fill="#00526D"/>
<path d="M55.7826 51.5621C55.872 51.704 55.9008 51.8507 55.9156 51.9984C55.9241 52.1465 55.9179 52.2959 55.851 52.4497C55.7611 52.3078 55.7323 52.1613 55.7179 52.0136C55.7096 51.8653 55.7158 51.716 55.7826 51.5621Z" fill="#00526D"/>
<path d="M54.2176 44.9384C54.3175 45.0494 54.3579 45.1714 54.384 45.2958C54.4042 45.4214 54.41 45.5498 54.3556 45.689C54.2553 45.5782 54.2149 45.4563 54.1889 45.3316C54.1692 45.206 54.1636 45.0776 54.2176 44.9384Z" fill="#00526D"/>
<path d="M53.5229 39.9556C53.6125 40.1561 53.6416 40.3598 53.6564 40.5646C53.6651 40.7695 53.6589 40.9753 53.5919 41.1846C53.5019 40.9842 53.4729 40.7805 53.4584 40.5757C53.4502 40.3707 53.4562 40.1649 53.5229 39.9556Z" fill="#00526D"/>
<path d="M52.7785 43.0959C52.8326 43.2352 52.8273 43.3635 52.8077 43.4892C52.7822 43.6138 52.742 43.7357 52.6419 43.847C52.5873 43.7077 52.5926 43.5794 52.6126 43.4537C52.6386 43.3291 52.6785 43.2071 52.7785 43.0959Z" fill="#00526D"/>
<path d="M51.2604 40.977C51.3047 41.1943 51.2891 41.4022 51.2594 41.6078C51.2236 41.8123 51.1733 42.0146 51.0627 42.207C51.018 41.9895 51.0336 41.7816 51.0637 41.5762C51.1 41.3717 51.1502 41.1696 51.2604 40.977Z" fill="#00526D"/>
<path d="M48.7549 39.8182C48.8552 40.0026 48.8951 40.194 48.9211 40.3872C48.9409 40.5811 48.9458 40.7766 48.8904 40.979C48.7897 40.7947 48.7497 40.6033 48.7242 40.4101C48.7048 40.2162 48.6996 40.0207 48.7549 39.8182Z" fill="#00526D"/>
<path d="M46.4971 38.9312C46.6189 39.1067 46.6815 39.2962 46.7303 39.4888C46.7729 39.6829 46.8014 39.8805 46.7703 40.0918C46.6481 39.9163 46.5855 39.727 46.5371 39.5342C46.4948 39.3401 46.4664 39.1426 46.4971 38.9312Z" fill="#00526D"/>
<path d="M45.2681 40.365C45.3602 40.5419 45.3793 40.7329 45.3709 40.9197C45.3565 41.1062 45.3136 41.2934 45.1999 41.4574C45.1593 41.2627 45.1645 41.0862 45.1729 40.9074C45.1871 40.729 45.2038 40.553 45.2681 40.365Z" fill="#00526D"/>
<path d="M42.7446 40.9107C42.8579 41.0621 42.9006 41.2386 42.9148 41.4143C42.923 41.5905 42.9026 41.7709 42.8087 41.9353C42.7456 41.7575 42.73 41.5935 42.7168 41.4267C42.7096 41.2594 42.7046 41.0946 42.7446 40.9107Z" fill="#00526D"/>
<path d="M46.975 42.4132C47.076 42.5898 47.1269 42.7653 47.1746 42.9437C47.2167 43.1235 47.2544 43.3021 47.248 43.5056C47.1071 43.3577 47.0315 43.1771 46.9822 42.9917C46.939 42.805 46.9206 42.6099 46.975 42.4132Z" fill="#00526D"/>
<path d="M48.9549 42.6864C49.0332 42.8572 49.0507 43.0277 49.054 43.1985C49.0511 43.3693 49.0336 43.5398 48.9549 43.7106C48.8762 43.5398 48.8587 43.3693 48.8558 43.1985C48.8591 43.0277 48.8766 42.8569 48.9549 42.6864Z" fill="#00526D"/>
<path d="M51.3445 44.2567C51.4228 44.382 51.4403 44.507 51.4438 44.6323C51.4409 44.7575 51.4232 44.8825 51.3445 45.0078C51.2658 44.8825 51.2483 44.7575 51.2454 44.6323C51.2487 44.507 51.2664 44.3818 51.3445 44.2567Z" fill="#00526D"/>
<path d="M52.9832 46.9877C53.0615 47.1698 53.079 47.3519 53.0823 47.534C53.0794 47.7161 53.0619 47.8982 52.9832 48.0801C52.9045 47.898 52.887 47.7159 52.8841 47.534C52.8874 47.3519 52.9049 47.1698 52.9832 46.9877Z" fill="#00526D"/>
<path d="M49.5694 45.6905C49.702 45.9076 49.7657 46.147 49.8036 46.3886C49.8353 46.6311 49.8413 46.8787 49.7743 47.1242C49.6841 46.8869 49.6439 46.6527 49.6073 46.4166C49.5766 46.1795 49.5496 45.9434 49.5694 45.6905Z" fill="#00526D"/>
<path d="M46.4287 45.6221C46.5181 45.764 46.5469 45.9107 46.5618 46.0582C46.5702 46.2063 46.564 46.3556 46.4971 46.5095C46.4073 46.3676 46.3784 46.2211 46.364 46.0734C46.356 45.9253 46.3622 45.7762 46.4287 45.6221Z" fill="#00526D"/>
<path d="M44.1757 43.4375C44.3014 43.5666 44.3584 43.7302 44.3852 43.8952C44.4062 44.061 44.3971 44.2341 44.3123 44.3933C44.2398 44.2291 44.2138 44.0779 44.1889 43.9232C44.1699 43.7677 44.1524 43.615 44.1757 43.4375Z" fill="#00526D"/>
<path d="M42.6054 46.3732C42.7302 46.4607 42.7936 46.5855 42.8322 46.7147C42.8649 46.8453 42.8736 46.9854 42.8101 47.124C42.7172 47.0039 42.6766 46.8873 42.6408 46.7668C42.6109 46.6447 42.5866 46.5235 42.6054 46.3732Z" fill="#00526D"/>
<path d="M44.8584 47.1242C44.9366 47.3063 44.9542 47.4884 44.9575 47.6705C44.9546 47.8526 44.9371 48.0348 44.8584 48.2167C44.7797 48.0345 44.7622 47.8524 44.7593 47.6705C44.7626 47.4884 44.7803 47.3063 44.8584 47.1242Z" fill="#00526D"/>
<path d="M42.8785 48.9677C42.9772 49.0398 43.0169 49.1266 43.0431 49.2168C43.0631 49.3085 43.0686 49.4038 43.0151 49.5138C42.916 49.4419 42.8762 49.3552 42.8507 49.2648C42.8311 49.1729 42.8253 49.0777 42.8785 48.9677Z" fill="#00526D"/>
<path d="M41.3082 49.9236C41.4285 50.1075 41.5 50.2942 41.5704 50.4837C41.6351 50.6751 41.6965 50.8654 41.7179 51.0842C41.5552 50.935 41.4557 50.7461 41.3834 50.5496C41.3166 50.3512 41.2756 50.1415 41.3082 49.9236Z" fill="#00526D"/>
<path d="M44.042 51.0152C44.1518 51.1194 44.2033 51.2399 44.241 51.3641C44.2727 51.49 44.29 51.6198 44.2488 51.7656C44.1386 51.6614 44.0871 51.5411 44.0498 51.4167C44.0185 51.2908 44.001 51.161 44.042 51.0152Z" fill="#00526D"/>
<path d="M46.0925 49.3777C46.1609 49.5221 46.1833 49.6506 46.2046 49.7829C46.2198 49.9159 46.2326 50.0457 46.2046 50.2033C46.0834 50.097 46.0303 49.9536 46.008 49.8094C45.9916 49.6646 46.0045 49.5124 46.0925 49.3777Z" fill="#00526D"/>
<path d="M47.9366 47.3976C48.0032 47.5846 48.0091 47.7678 48.0007 47.9501C47.9863 48.132 47.957 48.3129 47.8668 48.49C47.7998 48.303 47.7939 48.1198 47.8027 47.9375C47.8178 47.7556 47.8468 47.5748 47.9366 47.3976Z" fill="#00526D"/>
<path d="M49.9107 49.1725C49.989 49.3888 50.0065 49.6049 50.0098 49.8212C50.0069 50.0373 49.9894 50.2536 49.9107 50.4699C49.832 50.2536 49.8145 50.0375 49.8116 49.8212C49.8149 49.6049 49.8325 49.3886 49.9107 49.1725Z" fill="#00526D"/>
<path d="M51.9699 49.6484C52.0836 49.8251 52.125 50.0247 52.1374 50.2231C52.1438 50.4219 52.1205 50.6244 52.0228 50.8106C51.9635 50.6098 51.9505 50.4221 51.9392 50.2322C51.9338 50.0418 51.9297 49.8537 51.9699 49.6484Z" fill="#00526D"/>
<path d="M54.417 49.3773C54.4953 49.5707 54.5128 49.7641 54.5161 49.9576C54.5132 50.151 54.4955 50.3444 54.417 50.5379C54.3383 50.3444 54.3208 50.151 54.3179 49.9576C54.3212 49.7641 54.3387 49.5707 54.417 49.3773Z" fill="#00526D"/>
<path d="M53.5291 52.7229C53.6507 52.8861 53.7131 53.0638 53.7619 53.2451C53.8045 53.4278 53.833 53.6143 53.8023 53.8153C53.6805 53.6524 53.6179 53.4746 53.5695 53.2931C53.5271 53.1102 53.4986 52.924 53.5291 52.7229Z" fill="#00526D"/>
<path d="M50.456 52.245C50.546 52.4335 50.5757 52.6259 50.591 52.8191C50.6 53.0127 50.5945 53.2072 50.5279 53.4054C50.4375 53.2169 50.4078 53.0245 50.393 52.8313C50.3843 52.6376 50.3899 52.4432 50.456 52.245Z" fill="#00526D"/>
<path d="M48.1356 51.6303C48.225 51.7603 48.2539 51.8954 48.2685 52.0318C48.2769 52.1686 48.2707 52.3066 48.2038 52.4497C48.114 52.3198 48.0851 52.1846 48.0709 52.0483C48.0629 51.9115 48.0691 51.7734 48.1356 51.6303Z" fill="#00526D"/>
<path d="M45.5505 52.2421C45.6999 52.4765 45.7775 52.7392 45.8247 53.0049C45.8659 53.2717 45.8766 53.5455 45.8099 53.8153C45.7192 53.5531 45.6745 53.296 45.629 53.037C45.5895 52.7773 45.5495 52.5194 45.5505 52.2421Z" fill="#00526D"/>
<path d="M43.493 53.4056C43.6362 53.6108 43.7213 53.8332 43.7927 54.0598C43.8582 54.2883 43.9097 54.5209 43.9025 54.7712C43.759 54.5662 43.6737 54.3437 43.6028 54.1169C43.5377 53.8882 43.4862 53.6557 43.493 53.4056Z" fill="#00526D"/>
<path d="M41.5995 52.9211C41.7389 53.0776 41.8211 53.2546 41.8901 53.4365C41.9532 53.6204 42.0024 53.8093 41.9941 54.0188C41.8543 53.8625 41.7719 53.6855 41.7035 53.5034C41.6409 53.3195 41.5916 53.1306 41.5995 52.9211Z" fill="#00526D"/>
<path d="M43.6259 57.0246C43.7258 57.1608 43.7655 57.3062 43.7913 57.4537C43.8108 57.602 43.8158 57.7528 43.7606 57.9125C43.6603 57.7763 43.6205 57.6309 43.5952 57.4834C43.576 57.335 43.5709 57.1842 43.6259 57.0246Z" fill="#00526D"/>
<path d="M45.3363 56.0681C45.472 56.2031 45.5359 56.3806 45.5629 56.559C45.5841 56.7385 45.5691 56.9265 45.4729 57.0922C45.4119 56.9121 45.3909 56.7504 45.3662 56.5852C45.3472 56.4196 45.3252 56.2579 45.3363 56.0681Z" fill="#00526D"/>
<path d="M47.7943 54.8393C47.9243 55.019 47.9822 55.2279 48.0087 55.4376C48.0293 55.6481 48.0186 55.8646 47.9309 56.0683C47.8612 55.8586 47.8367 55.6605 47.8116 55.4596C47.7924 55.2579 47.7729 55.0592 47.7943 54.8393Z" fill="#00526D"/>
<path d="M49.8426 54.9075C49.9208 55.1123 49.9383 55.3173 49.9416 55.522C49.9388 55.7268 49.921 55.9318 49.8426 56.1365C49.7639 55.9318 49.7464 55.7268 49.7435 55.522C49.7468 55.3173 49.7643 55.1125 49.8426 54.9075Z" fill="#00526D"/>
<path d="M51.7542 56.1365C51.8436 56.3254 51.8727 56.5178 51.8873 56.7111C51.8957 56.9047 51.8896 57.0992 51.8224 57.2973C51.7326 57.1084 51.7036 56.916 51.6893 56.7228C51.6813 56.529 51.6875 56.3345 51.7542 56.1365Z" fill="#00526D"/>
<path d="M54.2122 55.5902C54.2672 55.782 54.2619 55.9662 54.2423 56.1487C54.2167 56.3304 54.1764 56.5102 54.0756 56.6826C54.0202 56.4908 54.0256 56.3065 54.0455 56.1242C54.0715 55.9427 54.1117 55.7626 54.2122 55.5902Z" fill="#00526D"/>
<path d="M55.9191 54.1565C55.9974 54.3499 56.0149 54.5433 56.0182 54.7368C56.0153 54.9302 55.9978 55.1236 55.9191 55.3171C55.8404 55.1236 55.8229 54.9302 55.82 54.7368C55.8231 54.5433 55.8408 54.3499 55.9191 54.1565Z" fill="#00526D"/>
<path d="M58.1038 54.8393C58.1705 55.0596 58.1767 55.2769 58.1687 55.4932C58.1545 55.7093 58.1254 55.9246 58.0356 56.1365C57.9684 55.9161 57.9623 55.699 57.9707 55.4827C57.9853 55.2666 58.0144 55.0513 58.1038 54.8393Z" fill="#00526D"/>
<path d="M59.7425 55.9318C59.773 56.1328 59.7443 56.319 59.7021 56.502C59.6537 56.6833 59.5913 56.861 59.4693 57.0242C59.4384 56.8231 59.4671 56.6367 59.5097 56.454C59.5583 56.2725 59.6209 56.0947 59.7425 55.9318Z" fill="#00526D"/>
<path d="M60.5618 58.4579C60.64 58.6514 60.6576 58.8448 60.6609 59.0382C60.658 59.2317 60.6405 59.4251 60.5618 59.6185C60.4831 59.4251 60.4656 59.2317 60.4627 59.0382C60.466 58.8448 60.4835 58.6514 60.5618 58.4579Z" fill="#00526D"/>
<path d="M58.2403 57.9116C58.3186 58.0709 58.3361 58.2303 58.3394 58.3895C58.3365 58.5488 58.319 58.7082 58.2403 58.8675C58.1617 58.7082 58.1441 58.5488 58.1413 58.3895C58.1446 58.2303 58.1621 58.0711 58.2403 57.9116Z" fill="#00526D"/>
<path d="M55.9873 57.0924C56.0656 57.2858 56.0831 57.4792 56.0864 57.6727C56.0835 57.8661 56.066 58.0595 55.9873 58.253C55.9086 58.0595 55.8911 57.8661 55.8882 57.6727C55.8915 57.4792 55.909 57.2858 55.9873 57.0924Z" fill="#00526D"/>
<path d="M54.6901 58.3895C54.7795 58.555 54.8086 58.7245 54.8232 58.8951C54.8317 59.0658 54.8255 59.2379 54.7583 59.4138C54.6685 59.2484 54.6395 59.0788 54.6252 58.9083C54.6172 58.7373 54.6234 58.5655 54.6901 58.3895Z" fill="#00526D"/>
<path d="M52.8466 59.2088C52.9371 59.3749 52.9554 59.5543 52.9469 59.7298C52.9325 59.9049 52.8905 60.0804 52.7784 60.2328C52.7362 60.0493 52.7407 59.8839 52.749 59.7166C52.7634 59.5497 52.7807 59.3854 52.8466 59.2088Z" fill="#00526D"/>
<path d="M50.6704 58.5931C50.7702 58.7171 50.8097 58.8508 50.8355 58.987C50.855 59.1239 50.86 59.2634 50.8048 59.4128C50.7046 59.2887 50.6651 59.1551 50.6398 59.0189C50.6206 58.8817 50.6157 58.7422 50.6704 58.5931Z" fill="#00526D"/>
<path d="M48.6819 57.2289C48.7602 57.3769 48.7777 57.5248 48.781 57.6727C48.7781 57.8206 48.7606 57.9685 48.6819 58.1164C48.6032 57.9685 48.5857 57.8206 48.5829 57.6727C48.5859 57.5248 48.6037 57.3769 48.6819 57.2289Z" fill="#00526D"/>
<path d="M46.3539 58.1174C46.4555 58.2647 46.4973 58.4211 46.5247 58.5797C46.5461 58.7391 46.5529 58.901 46.4996 59.0718C46.3976 58.9245 46.3558 58.7682 46.3288 58.6096C46.3078 58.4501 46.3008 58.2884 46.3539 58.1174Z" fill="#00526D"/>
<path d="M44.3805 59.482C44.4587 59.6754 44.4762 59.8688 44.4795 60.0623C44.4767 60.2557 44.4592 60.4491 44.3805 60.6426C44.3018 60.4491 44.2843 60.2557 44.2814 60.0623C44.2847 59.8688 44.3022 59.6754 44.3805 59.482Z" fill="#00526D"/>
<path d="M42.4688 58.7993C42.5359 59.0195 42.5538 59.2311 42.5683 59.4445C42.5767 59.6581 42.581 59.8703 42.537 60.0965C42.4253 59.8942 42.3845 59.6744 42.3701 59.4548C42.3621 59.235 42.3796 59.0123 42.4688 58.7993Z" fill="#00526D"/>
<path d="M42.3349 62.895C42.4723 63.0723 42.5444 63.2761 42.5926 63.4831C42.6348 63.6916 42.6536 63.9068 42.6012 64.1252C42.4972 63.9266 42.4455 63.7272 42.3987 63.5251C42.3582 63.3216 42.3229 63.1185 42.3349 62.895Z" fill="#00526D"/>
<path d="M44.0428 62.2127C44.1324 62.3544 44.1617 62.5009 44.1767 62.6486C44.1856 62.7967 44.1796 62.9461 44.1129 63.1002C44.0228 62.9584 43.9936 62.812 43.979 62.6643C43.9707 62.5161 43.9765 62.3668 44.0428 62.2127Z" fill="#00526D"/>
<path d="M46.1557 61.2571C46.2563 61.4532 46.2964 61.6561 46.3226 61.8606C46.3424 62.0658 46.3477 62.2727 46.2923 62.4861C46.1914 62.29 46.1512 62.087 46.1255 61.8825C46.1059 61.6773 46.1007 61.4707 46.1557 61.2571Z" fill="#00526D"/>
<path d="M47.8806 60.4349C47.9914 60.6257 48.0303 60.8362 48.0413 61.0455C48.0462 61.255 48.0227 61.4678 47.9257 61.6662C47.8658 61.4544 47.8534 61.2546 47.8431 61.0527C47.8388 60.8506 47.8367 60.6504 47.8806 60.4349Z" fill="#00526D"/>
<path d="M49.2206 61.0533C49.3209 61.2014 49.3613 61.3582 49.3875 61.517C49.4075 61.6767 49.413 61.8386 49.358 62.009C49.2573 61.8609 49.2169 61.7041 49.1912 61.5453C49.1716 61.3856 49.166 61.2239 49.2206 61.0533Z" fill="#00526D"/>
<path d="M51.0715 61.735C51.1498 61.9511 51.1673 62.1674 51.1706 62.3837C51.1677 62.5998 51.1502 62.8161 51.0715 63.0324C50.9928 62.8163 50.9753 62.6 50.9724 62.3837C50.9755 62.1674 50.9932 61.9513 51.0715 61.735Z" fill="#00526D"/>
<path d="M52.9148 62.0081C53.0238 62.1497 53.0642 62.3134 53.079 62.4768C53.0879 62.6406 53.0712 62.8085 52.983 62.964C52.9138 62.7998 52.895 62.6467 52.8812 62.4908C52.8734 62.3347 52.8701 62.1804 52.9148 62.0081Z" fill="#00526D"/>
<path d="M55.2362 60.9841C55.3145 61.2002 55.332 61.4165 55.3353 61.6328C55.3324 61.8489 55.3149 62.0652 55.2362 62.2815C55.1575 62.0654 55.14 61.8491 55.1371 61.6328C55.1404 61.4165 55.1579 61.2002 55.2362 60.9841Z" fill="#00526D"/>
<path d="M57.0113 59.9599C57.0793 60.1576 57.0977 60.3459 57.1121 60.5363C57.1205 60.727 57.1242 60.9161 57.0795 61.1205C56.9689 60.9421 56.9285 60.7447 56.9141 60.5478C56.9059 60.3507 56.923 60.15 57.0113 59.9599Z" fill="#00526D"/>
<path d="M59.678 60.9845C59.7334 61.1761 59.7285 61.3605 59.7095 61.543C59.6844 61.7247 59.6444 61.9047 59.5441 62.0774C59.4883 61.8858 59.4932 61.7014 59.5128 61.5189C59.5382 61.337 59.5779 61.1572 59.678 60.9845Z" fill="#00526D"/>
<path d="M60.9655 62.7598C61.0747 63.0138 61.0982 63.2899 61.0807 63.5595C61.0574 63.8288 60.9919 64.098 60.845 64.3322C60.8398 64.0568 60.8658 63.8026 60.8829 63.5443C60.9058 63.2866 60.9187 63.0311 60.9655 62.7598Z" fill="#00526D"/>
<path d="M58.923 63.3053C58.9646 63.521 58.9595 63.7212 58.9514 63.9233C58.9374 64.125 58.9203 64.3244 58.8548 64.5343C58.7632 64.3337 58.7446 64.1213 58.7535 63.9124C58.7683 63.7037 58.8103 63.4946 58.923 63.3053Z" fill="#00526D"/>
<path d="M56.8014 62.4863C56.8857 62.7386 56.8912 63.0015 56.8643 63.258C56.8313 63.5138 56.765 63.7682 56.6239 63.994C56.6123 63.7289 56.6408 63.4831 56.6673 63.2347C56.6997 62.9871 56.7291 62.7415 56.8014 62.4863Z" fill="#00526D"/>
<path d="M56.0555 65.4902C56.1338 65.6381 56.1513 65.786 56.1546 65.9339C56.1517 66.0818 56.134 66.2297 56.0555 66.3776C55.9768 66.2297 55.9593 66.0818 55.9564 65.9339C55.9597 65.786 55.9772 65.6381 56.0555 65.4902Z" fill="#00526D"/>
<path d="M54.2804 64.0564C54.3472 64.2323 54.3533 64.4041 54.3453 64.5751C54.3311 64.7457 54.302 64.915 54.2122 65.0806C54.1451 64.9047 54.1389 64.7329 54.1473 64.5619C54.162 64.3914 54.191 64.2218 54.2804 64.0564Z" fill="#00526D"/>
<path d="M57.8308 65.6267C57.9091 65.752 57.9266 65.877 57.9299 66.0023C57.927 66.1275 57.9095 66.2526 57.8308 66.3778C57.7521 66.2526 57.7346 66.1275 57.7317 66.0023C57.7348 65.877 57.7525 65.752 57.8308 65.6267Z" fill="#00526D"/>
<path d="M53.5293 66.446C53.6076 66.6168 53.6251 66.7873 53.6284 66.9581C53.6255 67.1289 53.6078 67.2995 53.5293 67.4702C53.4506 67.2995 53.4331 67.1289 53.4302 66.9581C53.4335 66.7873 53.451 66.6168 53.5293 66.446Z" fill="#00526D"/>
<path d="M52.0956 64.5343C52.1739 64.7278 52.1914 64.9212 52.1947 65.1146C52.1918 65.3081 52.1743 65.5015 52.0956 65.6949C52.0169 65.5015 51.9994 65.3081 51.9965 65.1146C51.9998 64.9212 52.0173 64.7278 52.0956 64.5343Z" fill="#00526D"/>
<path d="M51.2081 66.9923C51.2864 67.106 51.3039 67.2199 51.3072 67.3337C51.3043 67.4474 51.2868 67.5613 51.2081 67.675C51.1294 67.5613 51.1119 67.4474 51.109 67.3337C51.1121 67.2197 51.1298 67.106 51.2081 66.9923Z" fill="#00526D"/>
<path d="M49.9791 63.9882C50.0574 64.2727 50.0749 64.5572 50.0782 64.8417C50.0753 65.1262 50.0576 65.4107 49.9791 65.6951C49.9004 65.4107 49.8829 65.1262 49.88 64.8417C49.8833 64.5572 49.9008 64.2727 49.9791 63.9882Z" fill="#00526D"/>
<path d="M48.477 63.6467C48.5552 63.7946 48.5727 63.9425 48.576 64.0904C48.5732 64.2383 48.5554 64.3862 48.477 64.5341C48.3983 64.3862 48.3808 64.2383 48.3779 64.0904C48.3812 63.9427 48.3987 63.7948 48.477 63.6467Z" fill="#00526D"/>
<path d="M46.4287 63.7832C46.576 63.9668 46.6547 64.1827 46.7043 64.4027C46.748 64.6237 46.7631 64.8532 46.7019 65.0806C46.6061 64.8662 46.5579 64.6561 46.5103 64.4437C46.4687 64.2299 46.4281 64.0179 46.4287 63.7832Z" fill="#00526D"/>
<path d="M44.2441 64.6027C44.3436 64.7012 44.3835 64.8116 44.4095 64.9247C44.4295 65.039 44.4348 65.1562 44.3804 65.2856C44.2805 65.1871 44.2406 65.0769 44.215 64.9636C44.1955 64.8489 44.1899 64.7317 44.2441 64.6027Z" fill="#00526D"/>
<path d="M48.477 66.651C48.5552 66.7876 48.5727 66.9241 48.576 67.0607C48.5732 67.1973 48.5554 67.3339 48.477 67.4702C48.3983 67.3337 48.3808 67.1971 48.3779 67.0607C48.3812 66.9239 48.3987 66.7873 48.477 66.651Z" fill="#00526D"/>
<path d="M60.0822 40.7747C60.1718 40.9636 60.2007 41.156 60.2155 41.3492C60.2239 41.5429 60.2177 41.7373 60.1508 41.9355C60.0608 41.7466 60.0319 41.5542 60.0175 41.361C60.0095 41.1673 60.0155 40.9729 60.0822 40.7747Z" fill="#00526D"/>
<path d="M61.2385 41.8679C61.3511 42.0832 61.4039 42.308 61.4426 42.535C61.4752 42.7628 61.4931 42.9929 61.4506 43.2323C61.3375 43.017 61.2848 42.7923 61.2465 42.5652C61.2146 42.3374 61.1964 42.1073 61.2385 41.8679Z" fill="#00526D"/>
<path d="M62.8628 42.6227C62.986 42.8098 63.05 43.0102 63.1003 43.2139C63.1444 43.4191 63.1742 43.6276 63.1444 43.8497C63.0208 43.6628 62.9567 43.4622 62.9069 43.2584C62.8632 43.0533 62.8333 42.8448 62.8628 42.6227Z" fill="#00526D"/>
<path d="M64.8008 44.2565C64.8902 44.5379 64.9191 44.8218 64.9337 45.1061C64.9421 45.3907 64.9357 45.6758 64.8684 45.9634C64.7786 45.682 64.7495 45.3984 64.7355 45.1139C64.7275 44.8292 64.7339 44.5441 64.8008 44.2565Z" fill="#00526D"/>
<path d="M62.8727 45.4886C63.0175 45.7051 63.1042 45.9387 63.1771 46.1764C63.2441 46.4158 63.297 46.6593 63.2913 46.9199C63.146 46.7034 63.0593 46.4698 62.9868 46.232C62.9202 45.9927 62.8673 45.7492 62.8727 45.4886Z" fill="#00526D"/>
<path d="M64.6523 48.0131C64.773 48.2016 64.8346 48.4031 64.8822 48.6074C64.9236 48.8132 64.9508 49.0219 64.918 49.2436C64.7969 49.0551 64.7353 48.8536 64.6881 48.6493C64.6472 48.4435 64.62 48.2348 64.6523 48.0131Z" fill="#00526D"/>
<path d="M65.7559 49.9225C65.8562 50.0459 65.8968 50.1794 65.9235 50.3152C65.9439 50.4522 65.9499 50.5916 65.8955 50.7412C65.7946 50.618 65.754 50.4845 65.7278 50.3485C65.7081 50.2116 65.7021 50.0723 65.7559 49.9225Z" fill="#00526D"/>
<path d="M63.5659 50.1965C63.7156 50.3768 63.7912 50.597 63.8295 50.8197C63.8621 51.0432 63.858 51.2762 63.7706 51.4937C63.7004 51.2712 63.6697 51.0621 63.6336 50.8506C63.6034 50.6382 63.5679 50.4297 63.5659 50.1965Z" fill="#00526D"/>
<path d="M65.0587 52.2456C65.1568 52.4934 65.2077 52.7384 65.2577 52.9851C65.302 53.2332 65.3445 53.4795 65.3434 53.7461C65.1937 53.5249 65.1137 53.2752 65.0629 53.022C65.018 52.7678 65.0009 52.5064 65.0587 52.2456Z" fill="#00526D"/>
<path d="M66.2968 53.269C66.3971 53.4293 66.4373 53.5978 66.4634 53.7679C66.4832 53.9391 66.4886 54.112 66.4334 54.293C66.3326 54.1328 66.2925 53.9645 66.2667 53.7941C66.2474 53.6229 66.242 53.4501 66.2968 53.269Z" fill="#00526D"/>
<path d="M63.5658 53.269C63.687 53.4196 63.7494 53.5856 63.7982 53.7556C63.8409 53.927 63.8695 54.1023 63.839 54.2932C63.7175 54.1429 63.655 53.9766 63.6066 53.8067C63.5642 53.6351 63.5358 53.4598 63.5658 53.269Z" fill="#00526D"/>
<path d="M62.4734 55.4538C62.616 55.6339 62.7009 55.8331 62.7723 56.037C62.8378 56.2428 62.8893 56.4532 62.8832 56.6828C62.7402 56.5028 62.6553 56.3036 62.5843 56.0997C62.5192 55.8937 62.4675 55.6833 62.4734 55.4538Z" fill="#00526D"/>
<path d="M64.7149 55.6607C64.8272 55.852 64.8795 56.0537 64.9178 56.2579C64.95 56.463 64.9677 56.6707 64.9252 56.8886C64.8126 56.6973 64.7602 56.4956 64.7223 56.2914C64.6906 56.0861 64.6729 55.8784 64.7149 55.6607Z" fill="#00526D"/>
<path d="M66.3652 55.522C66.4548 55.7688 66.4837 56.0183 66.4985 56.2686C66.5069 56.5191 66.5007 56.7702 66.4336 57.0242C66.3436 56.7774 66.3147 56.5279 66.3003 56.2776C66.2921 56.0271 66.2983 55.776 66.3652 55.522Z" fill="#00526D"/>
<path d="M65.8813 58.3226C66.008 58.5418 66.0638 58.7828 66.0918 59.0249C66.1137 59.2675 66.1077 59.5149 66.0274 59.7551C65.9503 59.5145 65.9215 59.2807 65.8945 59.045C65.8737 58.8086 65.8547 58.5737 65.8813 58.3226Z" fill="#00526D"/>
<path d="M63.3388 57.9846C63.469 58.2225 63.549 58.4658 63.6254 58.7117C63.6958 58.9593 63.7615 59.2072 63.7817 59.4776C63.6147 59.2634 63.5125 59.0187 63.4352 58.7682C63.3638 58.516 63.316 58.2552 63.3388 57.9846Z" fill="#00526D"/>
<path d="M67.321 59.0724C67.4106 59.3077 67.4395 59.5458 67.4543 59.7846C67.4628 60.0237 67.4566 60.2635 67.3894 60.5062C67.2994 60.271 67.2706 60.0328 67.2561 59.7941C67.2481 59.5549 67.2543 59.3151 67.321 59.0724Z" fill="#00526D"/>
<path d="M64.7948 60.6426C64.9254 60.7756 64.999 60.9289 65.0589 61.0871C65.1131 61.2474 65.1535 61.4126 65.1362 61.5984C65.0052 61.4655 64.9318 61.3121 64.8721 61.1539C64.8183 60.9936 64.778 60.8284 64.7948 60.6426Z" fill="#00526D"/>
<path d="M64.3147 63.9882C64.3917 64.1635 64.4257 64.3259 64.4624 64.4913C64.4935 64.6577 64.5254 64.8205 64.5225 65.012C64.3802 64.8818 64.3066 64.708 64.2679 64.5308C64.2349 64.3522 64.2347 64.1635 64.3147 63.9882Z" fill="#00526D"/>
<path d="M66.8392 66.5919C66.3555 66.4794 65.9029 66.2561 65.4924 65.9776L65.5989 65.8105C65.8141 65.9417 66.0115 66.0836 66.2117 66.2223C66.4138 66.3574 66.6095 66.4989 66.8392 66.5919ZM66.8392 66.5919C66.7137 66.5892 66.5908 66.5521 66.4727 66.5103C66.3553 66.4658 66.2414 66.4133 66.1316 66.355C65.911 66.2406 65.7039 66.1028 65.4981 65.9813L65.6046 65.8142C66.0014 66.0907 66.4159 66.3348 66.8392 66.5919Z" fill="#00526D"/>
<path d="M66.2379 63.8319C66.5201 63.878 66.7764 63.9792 67.0267 64.0931C67.2743 64.2128 67.5157 64.3456 67.731 64.5337C67.4487 64.488 67.1923 64.3868 66.9422 64.2725C66.6948 64.1526 66.4534 64.0197 66.2379 63.8319Z" fill="#00526D"/>
<path d="M68.686 63.8539C68.9245 63.822 69.1544 63.8619 69.3755 63.9258C69.5946 63.9956 69.8078 64.0908 69.9881 64.2505C69.7483 64.2365 69.5332 64.1782 69.3178 64.1155C69.1042 64.0471 68.893 63.9754 68.686 63.8539Z" fill="#00526D"/>
<path d="M68.2076 65.2875C68.4075 65.2831 68.5846 65.3353 68.7564 65.4006C68.926 65.4716 69.0901 65.5563 69.2315 65.6978C69.0316 65.7023 68.8543 65.6504 68.6827 65.5847C68.5133 65.513 68.3492 65.4284 68.2076 65.2875Z" fill="#00526D"/>
<path d="M68.822 66.859C69.0273 66.8411 69.2146 66.8811 69.3977 66.9344C69.579 66.994 69.756 67.0675 69.9146 67.1993C69.709 67.2177 69.5217 67.1777 69.3388 67.1237C69.1577 67.064 68.9808 66.9905 68.822 66.859Z" fill="#00526D"/>
<path d="M70.5987 65.7615C70.8103 65.733 71.0076 65.7633 71.2012 65.8076C71.3934 65.8579 71.5823 65.9226 71.7564 66.0464C71.5446 66.0752 71.3475 66.0449 71.1539 66.0002C70.9617 65.9493 70.773 65.8849 70.5987 65.7615Z" fill="#00526D"/>
<path d="M71.4175 64.4661C71.5984 64.4365 71.7624 64.4651 71.9227 64.5073C72.0811 64.5555 72.2356 64.618 72.3734 64.7393C72.1925 64.7694 72.0283 64.7407 71.8683 64.6981C71.7099 64.6493 71.5554 64.5869 71.4175 64.4661Z" fill="#00526D"/>
<path d="M72.3711 66.6652C72.5831 66.619 72.7901 66.6444 72.9893 66.6934C73.1869 66.7484 73.3795 66.8285 73.5412 66.9736C73.3247 66.976 73.1321 66.9332 72.9389 66.8852C72.7471 66.8312 72.5584 66.7735 72.3711 66.6652Z" fill="#00526D"/>
<path d="M71.5525 67.9545C71.8096 67.9366 72.0525 67.9776 72.292 68.0324C72.53 68.0934 72.7646 68.1684 72.9846 68.3031C72.7273 68.3214 72.4844 68.2804 72.2451 68.2252C72.0071 68.1638 71.7727 68.0887 71.5525 67.9545Z" fill="#00526D"/>
<path d="M73.603 65.0065C73.7734 64.9515 73.9351 64.9568 74.0949 64.976C74.2538 65.0015 74.4107 65.0415 74.559 65.142C74.3887 65.1972 74.2268 65.1921 74.0671 65.1725C73.9083 65.1466 73.7515 65.1066 73.603 65.0065Z" fill="#00526D"/>
<path d="M75.6531 65.7508C75.8393 65.7093 76.0134 65.7275 76.1846 65.7594C76.3545 65.7975 76.5214 65.8498 76.6759 65.9621C76.4895 66.0039 76.3154 65.986 76.1444 65.9535C75.9747 65.9151 75.8078 65.8626 75.6531 65.7508Z" fill="#00526D"/>
<path d="M75.0345 66.9338C75.1941 66.8786 75.3447 66.8835 75.4932 66.9025C75.6407 66.9276 75.7862 66.9672 75.9226 67.0673C75.7629 67.1229 75.6123 67.118 75.4638 67.0986C75.3163 67.0731 75.1709 67.0335 75.0345 66.9338Z" fill="#00526D"/>
<path d="M74.8998 68.4897C75.1558 68.4308 75.4018 68.418 75.6494 68.4061C75.8972 68.4003 76.1434 68.3958 76.4032 68.437C76.1657 68.5515 75.9106 68.5925 75.6564 68.6043C75.402 68.6098 75.1447 68.587 74.8998 68.4897Z" fill="#00526D"/>
<path d="M77.2896 67.1227C77.4328 67.0564 77.5708 67.0506 77.7076 67.0591C77.8437 67.0737 77.9789 67.1029 78.1086 67.193C77.9655 67.2597 77.8275 67.2655 77.6907 67.2566C77.5545 67.2418 77.4196 67.2125 77.2896 67.1227Z" fill="#00526D"/>
<path d="M41.5817 43.0281C41.5599 43.2137 41.5072 43.366 41.4544 43.5217C41.3961 43.6756 41.3399 43.8264 41.2379 43.9834C41.184 43.8029 41.2105 43.6214 41.2678 43.4546C41.3304 43.2898 41.4256 43.133 41.5817 43.0281Z" fill="#00526D"/>
<path d="M40.011 42.2766C40.0429 42.4326 40.0293 42.5642 40.0104 42.6975C39.9855 42.83 39.9556 42.9589 39.8744 43.0959C39.7982 42.9552 39.7939 42.8067 39.8147 42.665C39.8415 42.5243 39.8936 42.3852 40.011 42.2766Z" fill="#00526D"/>
<path d="M38.5047 43.7098C38.5591 43.8696 38.5535 44.0202 38.5337 44.1688C38.508 44.3162 38.4676 44.4615 38.3669 44.5972C38.3121 44.4372 38.3176 44.2866 38.3376 44.1383C38.364 43.991 38.4044 43.8457 38.5047 43.7098Z" fill="#00526D"/>
<path d="M40.4831 44.9369C40.4539 45.2068 40.3688 45.4532 40.2707 45.694C40.1669 45.9323 40.0495 46.1649 39.8756 46.3738C39.9045 46.1037 39.9894 45.8573 40.088 45.6167C40.1923 45.3786 40.3097 45.1458 40.4831 44.9369Z" fill="#00526D"/>
<path d="M38.5088 45.6905C38.534 45.942 38.5152 46.1762 38.4961 46.4127C38.4707 46.6486 38.4448 46.8822 38.3725 47.1242C38.2876 46.8853 38.2783 46.637 38.2987 46.3938C38.3249 46.1511 38.3807 45.909 38.5088 45.6905Z" fill="#00526D"/>
<path d="M39.1917 48.7628C39.2585 48.9387 39.2646 49.1105 39.2564 49.2815C39.2422 49.452 39.2131 49.6216 39.1233 49.787C39.0562 49.6111 39.05 49.4393 39.0584 49.2683C39.0733 49.0977 39.1021 48.9282 39.1917 48.7628Z" fill="#00526D"/>
<path d="M37.6958 48.4906C37.7382 48.7409 37.7205 48.9822 37.6888 49.2215C37.6509 49.4599 37.5983 49.6961 37.4854 49.9236C37.4426 49.6733 37.4603 49.4318 37.4924 49.1927C37.5308 48.9543 37.5833 48.7181 37.6958 48.4906Z" fill="#00526D"/>
<path d="M37.8943 51.6303C37.9726 51.8124 37.9901 51.9945 37.9934 52.1764C37.9905 52.3585 37.973 52.5406 37.8943 52.7227C37.8157 52.5406 37.7981 52.3585 37.7953 52.1764C37.7986 51.9945 37.8161 51.8124 37.8943 51.6303Z" fill="#00526D"/>
<path d="M39.1233 52.3132C39.1781 52.505 39.173 52.6891 39.1534 52.8716C39.1279 53.0533 39.0875 53.2332 38.9868 53.4056C38.9315 53.2138 38.9367 53.0294 38.9567 52.8471C38.9826 52.6654 39.023 52.4854 39.1233 52.3132Z" fill="#00526D"/>
<path d="M36.5314 51.4939C36.5982 51.7254 36.6041 51.9539 36.5961 52.1817C36.5817 52.4092 36.5526 52.6358 36.4626 52.8595C36.3955 52.6279 36.3895 52.3995 36.3979 52.1716C36.4128 51.9442 36.4418 51.7176 36.5314 51.4939Z" fill="#00526D"/>
<path d="M36.5253 54.7026C36.5916 54.923 36.5976 55.1401 36.5891 55.3564C36.5745 55.5725 36.5453 55.7878 36.455 55.9995C36.3881 55.7791 36.3823 55.562 36.3912 55.3457C36.406 55.1298 36.4353 54.9145 36.5253 54.7026Z" fill="#00526D"/>
<path d="M37.8931 54.3614C37.9879 54.5135 38.0089 54.6836 38.0012 54.849C37.9876 55.014 37.9444 55.1799 37.8301 55.3181C37.7909 55.144 37.7959 54.9914 37.8035 54.8358C37.8167 54.6809 37.8317 54.5289 37.8931 54.3614Z" fill="#00526D"/>
<path d="M39.806 54.8393C39.8513 55.0435 39.8478 55.2328 39.8398 55.4238C39.8258 55.6143 39.807 55.8028 39.7376 56.0002C39.6496 55.8096 39.633 55.6092 39.6418 55.4122C39.6569 55.2153 39.6968 55.0182 39.806 54.8393Z" fill="#00526D"/>
<path d="M40.6937 56.3413C40.7124 56.5774 40.6725 56.798 40.6189 57.0151C40.5592 57.2306 40.4852 57.4424 40.3523 57.6385C40.3332 57.4022 40.3729 57.1816 40.4271 56.9646C40.4873 56.7494 40.561 56.5376 40.6937 56.3413Z" fill="#00526D"/>
<path d="M39.5316 58.1848C39.6138 58.3564 39.6221 58.5385 39.6031 58.7148C39.5782 58.8903 39.5246 59.0648 39.402 59.2105C39.3728 59.0232 39.388 58.8576 39.4064 58.6899C39.4307 58.523 39.457 58.3589 39.5316 58.1848Z" fill="#00526D"/>
<path d="M38.3718 56.9558C38.4285 57.1043 38.4252 57.2438 38.4077 57.3812C38.384 57.5176 38.3459 57.6519 38.2474 57.7769C38.1904 57.6284 38.1936 57.4887 38.2116 57.3515C38.2357 57.2151 38.2738 57.0808 38.3718 56.9558Z" fill="#00526D"/>
<path d="M36.522 57.2283C36.5794 57.4411 36.5766 57.648 36.5595 57.8533C36.5362 58.0581 36.4983 58.2614 36.3996 58.4588C36.3417 58.246 36.3446 58.0391 36.3621 57.8338C36.3858 57.6288 36.4237 57.4255 36.522 57.2283Z" fill="#00526D"/>
<path d="M35.9145 59.8233C35.9927 60.0054 36.0102 60.1875 36.0135 60.3694C36.0107 60.5515 35.9931 60.7336 35.9145 60.9155C35.8358 60.7334 35.8183 60.5513 35.8154 60.3694C35.8187 60.1875 35.8362 60.0054 35.9145 59.8233Z" fill="#00526D"/>
<path d="M37.5454 59.6173C37.5886 59.8351 37.5719 60.0427 37.5412 60.2481C37.5044 60.4524 37.4531 60.6545 37.3414 60.8463C37.2977 60.6286 37.3144 60.4209 37.3455 60.2155C37.3828 60.0112 37.4341 59.8093 37.5454 59.6173Z" fill="#00526D"/>
<path d="M39.0552 60.5744C39.1334 60.7474 39.1392 60.9287 39.119 61.104C39.0928 61.2787 39.0399 61.4519 38.9186 61.5984C38.8877 61.4116 38.9029 61.2455 38.9223 61.0779C38.9478 60.911 38.9767 60.7466 39.0552 60.5744Z" fill="#00526D"/>
<path d="M38.9186 64.1248C38.9612 64.3108 38.9443 64.4849 38.9134 64.6563C38.8763 64.8264 38.825 64.9937 38.7138 65.1488C38.6708 64.9626 38.6876 64.7885 38.719 64.6173C38.7562 64.4474 38.8077 64.2801 38.9186 64.1248Z" fill="#00526D"/>
<path d="M37.0751 66.651C36.969 66.8063 36.8122 66.9002 36.6474 66.9624C36.4808 67.0191 36.2997 67.0457 36.1192 66.9925C36.2758 66.8901 36.4268 66.8337 36.5807 66.7758C36.7366 66.7231 36.8893 66.671 37.0751 66.651Z" fill="#00526D"/>
<path d="M37.0069 65.3536C36.84 65.5359 36.6437 65.6649 36.4406 65.7817C36.2344 65.8929 36.021 65.9914 35.7779 66.0363C35.9445 65.8538 36.1409 65.7246 36.3442 65.6082C36.5506 65.4976 36.764 65.3991 37.0069 65.3536Z" fill="#00526D"/>
<path d="M36.7337 64.193C36.6709 64.3495 36.5553 64.4569 36.428 64.5417C36.2976 64.6215 36.1512 64.6806 35.9827 64.6709C36.085 64.5378 36.201 64.4546 36.3215 64.3745C36.4455 64.2995 36.57 64.2296 36.7337 64.193Z" fill="#00526D"/>
<path d="M35.6401 63.1671C35.5393 63.3348 35.3881 63.4471 35.2262 63.5325C35.0616 63.6129 34.8816 63.6685 34.6867 63.65C34.8313 63.5192 34.9823 63.437 35.1366 63.3556C35.2936 63.2798 35.4493 63.2065 35.6401 63.1671Z" fill="#00526D"/>
<path d="M33.593 63.5103C33.4725 63.6693 33.322 63.7756 33.1644 63.8696C33.0037 63.9581 32.8356 64.0337 32.6372 64.0566C32.7575 63.8974 32.9081 63.7909 33.0659 63.6973C33.227 63.6092 33.3949 63.5334 33.593 63.5103Z" fill="#00526D"/>
<path d="M33.6645 65.0209C33.5098 65.1624 33.3339 65.2471 33.153 65.3184C32.9699 65.3839 32.7816 65.4356 32.5719 65.43C32.7264 65.2881 32.9023 65.2034 33.0834 65.1325C33.2667 65.0675 33.455 65.0157 33.6645 65.0209Z" fill="#00526D"/>
<path d="M34.0728 66.1104C33.914 66.2419 33.737 66.3154 33.556 66.3753C33.373 66.4293 33.1856 66.4693 32.9802 66.451C33.1388 66.3191 33.3158 66.2456 33.497 66.186C33.68 66.1325 33.8674 66.0925 34.0728 66.1104Z" fill="#00526D"/>
<path d="M31.8864 67.607C32.0672 67.456 32.2837 67.3747 32.5041 67.3248C32.726 67.2807 32.9569 67.2677 33.1833 67.333C32.967 67.4247 32.7573 67.4711 32.5451 67.5189C32.3317 67.5605 32.121 67.6029 31.8864 67.607Z" fill="#00526D"/>
<path d="M30.589 66.5826C30.7474 66.4952 30.8992 66.4569 31.0541 66.4205C31.2103 66.3898 31.3643 66.3628 31.5448 66.3778C31.42 66.5103 31.2595 66.5764 31.0957 66.6143C30.9305 66.6464 30.7571 66.6518 30.589 66.5826Z" fill="#00526D"/>
<path d="M30.2474 65.2139C30.4328 65.1288 30.6077 65.0864 30.7851 65.0405C30.9639 65.0003 31.1388 64.9585 31.3429 64.9502C31.2043 65.1019 31.0203 65.1851 30.8316 65.2333C30.6415 65.2759 30.4398 65.2856 30.2474 65.2139Z" fill="#00526D"/>
<path d="M27.8584 65.0821C28.0039 64.9502 28.1687 64.8761 28.338 64.8153C28.5094 64.7605 28.6855 64.7195 28.881 64.7364C28.7358 64.8687 28.571 64.9428 28.4014 65.0032C28.2301 65.0578 28.0539 65.0986 27.8584 65.0821Z" fill="#00526D"/>
<path d="M27.653 66.1728C27.8242 66.0235 28.0261 65.9384 28.2329 65.8776C28.4414 65.8226 28.6583 65.7915 28.882 65.8315C28.6865 65.9462 28.4878 66.0097 28.2861 66.0688C28.0828 66.122 27.8796 66.1702 27.653 66.1728Z" fill="#00526D"/>
<path d="M28.1994 67.5384C28.3547 67.4276 28.522 67.3761 28.6919 67.3388C28.8631 67.3075 29.0374 67.2906 29.2234 67.3337C29.0681 67.4449 28.901 67.4964 28.7309 67.5333C28.5595 67.5642 28.3854 67.5811 28.1994 67.5384Z" fill="#00526D"/>
<path d="M28.7455 68.4943C28.8814 68.3941 29.0266 68.354 29.1741 68.328C29.3225 68.308 29.473 68.3027 29.6329 68.3577C29.4969 68.4582 29.3517 68.4984 29.2042 68.5239C29.0559 68.5435 28.9053 68.5489 28.7455 68.4943Z" fill="#00526D"/>
<path d="M25.6066 68.7792C25.7434 68.6801 25.8888 68.6409 26.0366 68.616C26.1851 68.5973 26.3357 68.5929 26.4951 68.6492C26.3583 68.7487 26.2129 68.7878 26.0652 68.8123C25.9167 68.8307 25.7661 68.835 25.6066 68.7792Z" fill="#00526D"/>
<path d="M24.2417 68.23C24.3933 68.1101 24.56 68.0491 24.7301 68.0019C24.9019 67.9607 25.0774 67.9337 25.268 67.9659C25.1166 68.0862 24.9499 68.1472 24.7796 68.1939C24.6078 68.2347 24.4322 68.2619 24.2417 68.23Z" fill="#00526D"/>
<path d="M25.8788 66.9993C25.9958 66.9087 26.119 66.8782 26.2436 66.8621C26.3688 66.8522 26.4957 66.8568 26.6288 66.9223C26.5118 67.0133 26.3886 67.0438 26.264 67.0595C26.1385 67.0689 26.0118 67.0642 25.8788 66.9993Z" fill="#00526D"/>
<path d="M24.8521 65.8276C25.0053 65.6785 25.2039 65.6022 25.4054 65.5649C25.6077 65.5332 25.8205 65.5394 26.0143 65.6298C25.8126 65.697 25.627 65.7258 25.4385 65.7604C25.2492 65.7895 25.0646 65.8237 24.8521 65.8276Z" fill="#00526D"/>
</g>
<path d="M91.1361 14.5896L90.5986 16.4601C90.1061 16.594 89.637 16.7847 89.2023 17.0288L88.1388 16.0827H87.4793L85.9391 17.6032L86.8976 19.3041C86.6504 19.7332 86.4572 20.1961 86.3214 20.6825L84.4266 21.2131V23.3681L86.3214 23.8985C86.4572 24.3849 86.6504 24.8478 86.8976 25.2769L85.9391 26.9778L87.4793 28.4983H88.1388L89.2023 27.5521C89.637 27.7962 90.1058 27.987 90.5986 28.1209L91.1361 29.9914H93.319L93.8565 28.1209C94.349 27.987 94.8181 27.7962 95.2528 27.5521L96.9757 28.4983H97.6351L98.516 26.9778L97.5575 25.2769C97.8047 24.848 97.9979 24.3849 98.1337 23.8985L100.028 23.3681V21.2131L98.1337 20.6825C97.9979 20.1961 97.8047 19.7332 97.5575 19.3041L98.516 17.6032L97.6351 16.0827H96.9757L95.2528 17.0288C94.8181 16.7847 94.3492 16.594 93.8565 16.4601L93.319 14.5896H91.1361ZM96.986 22.2905C96.986 24.8772 94.848 26.9879 92.2276 26.9879C89.6073 26.9879 87.4693 24.8772 87.4693 22.2905C87.4693 19.7037 89.6073 17.5931 92.2276 17.5931C94.848 17.5931 96.986 19.7037 96.986 22.2905Z" fill="#02576E"/>
<path d="M91.7955 14.5896L91.258 16.4601C90.7655 16.594 90.2964 16.7847 89.8617 17.0288L88.1386 16.0827L86.5983 17.6032L87.5568 19.3041C87.3096 19.7332 87.1164 20.1961 86.9806 20.6825L85.0858 21.2131V23.3681L86.9806 23.8985C87.1164 24.3849 87.3096 24.8478 87.5568 25.2769L86.5983 26.9778L88.1386 28.4983L89.8617 27.5521C90.2964 27.7962 90.7653 27.987 91.258 28.1209L91.7955 29.9914H93.9785L94.5159 28.1209C95.0085 27.987 95.4775 27.7962 95.9122 27.5521L97.6352 28.4983L99.1754 26.9778L98.2169 25.2769C98.4641 24.848 98.6573 24.3849 98.7931 23.8985L100.688 23.3681V21.2131L98.7931 20.6825C98.6573 20.1961 98.4641 19.7332 98.2169 19.3041L99.1754 17.6032L97.6352 16.0827L95.9122 17.0288C95.4775 16.7847 95.0087 16.594 94.5159 16.4601L93.9785 14.5896H91.7955ZM97.6455 22.2905C97.6455 24.8772 95.5074 26.9879 92.8871 26.9879C90.2667 26.9879 88.1287 24.8772 88.1287 22.2905C88.1287 19.7037 90.2667 17.5931 92.8871 17.5931C95.5074 17.5931 97.6455 19.7037 97.6455 22.2905Z" fill="#0280A7"/>
<path d="M87.6108 31.5939L87.2606 32.8128C86.9396 32.9001 86.6339 33.0243 86.3507 33.1834L85.6575 32.5668H85.2278L84.2241 33.5577L84.8487 34.6661C84.6876 34.9457 84.5618 35.2475 84.4732 35.5643L83.2384 35.91V37.3143L84.4732 37.6599C84.5616 37.9768 84.6876 38.2785 84.8487 38.5581L84.2241 39.6666L85.2278 40.6574H85.6575L86.3507 40.0409C86.6339 40.1999 86.9396 40.3243 87.2606 40.4115L87.6108 41.6304H89.0334L89.3836 40.4115C89.7046 40.3241 90.0103 40.1999 90.2935 40.0409L91.4164 40.6574H91.8461L92.4201 39.6666L91.7955 38.5581C91.9566 38.2785 92.0824 37.9768 92.171 37.6599L93.4058 37.3143V35.91L92.171 35.5643C92.0826 35.2475 91.9566 34.9457 91.7955 34.6661L92.4201 33.5577L91.8461 32.5668H91.4164L90.2935 33.1834C90.0103 33.0243 89.7048 32.8999 89.3836 32.8128L89.0334 31.5939H87.6108ZM91.423 36.6124C91.423 38.2981 90.0296 39.6736 88.3221 39.6736C86.6146 39.6736 85.2212 38.2981 85.2212 36.6124C85.2212 34.9267 86.6146 33.5513 88.3221 33.5513C90.0298 33.5513 91.423 34.9267 91.423 36.6124Z" fill="#02576E"/>
<path d="M88.0405 31.5939L87.6903 32.8128C87.3694 32.9001 87.0637 33.0243 86.7804 33.1834L85.6575 32.5668L84.6539 33.5577L85.2785 34.6661C85.1174 34.9457 84.9915 35.2475 84.9029 35.5643L83.6682 35.91V37.3143L84.9029 37.6599C84.9913 37.9768 85.1174 38.2785 85.2785 38.5581L84.6539 39.6666L85.6575 40.6574L86.7804 40.0409C87.0637 40.1999 87.3691 40.3243 87.6903 40.4115L88.0405 41.6304H89.4631L89.8133 40.4115C90.1343 40.3241 90.44 40.1999 90.7232 40.0409L91.8461 40.6574L92.8498 39.6666L92.2252 38.5581C92.3863 38.2785 92.5121 37.9768 92.6007 37.6599L93.8355 37.3143V35.91L92.6007 35.5643C92.5123 35.2475 92.3863 34.9457 92.2252 34.6661L92.8498 33.5577L91.8461 32.5668L90.7232 33.1834C90.44 33.0243 90.1345 32.8999 89.8133 32.8128L89.4631 31.5939H88.0405ZM91.8527 36.6124C91.8527 38.2981 90.4594 39.6736 88.7518 39.6736C87.0443 39.6736 85.6509 38.2981 85.6509 36.6124C85.6509 34.9267 87.0443 33.5513 88.7518 33.5513C90.4596 33.5513 91.8527 34.9267 91.8527 36.6124Z" fill="#0280A7"/>
<path d="M31.2593 4.57514L10.9994 0.565143C10.4692 0.460083 9.95415 0.804927 9.84909 1.33538L7.35361 13.9432L29.534 18.3333L32.0295 5.72544C32.1344 5.1952 31.7895 4.6802 31.2593 4.57514Z" fill="#00526D"/>
<path d="M30.0286 18.4321L5.18813 13.5102C4.62492 13.3987 4.07799 13.765 3.96634 14.3282L28.8474 19.2325C29.3952 19.3404 29.9258 18.9807 30.0286 18.4321Z" fill="#00526D"/>
<path d="M31.7539 4.67402L11.494 0.664023C10.9637 0.559169 10.4485 0.903808 10.3437 1.43426L7.84821 14.0421L30.0286 18.4321L32.5241 5.82432C32.629 5.29408 32.2841 4.77908 31.7539 4.67402Z" fill="#0081A7"/>
<path d="M21.9135 10.0671C21.7289 10.9992 20.8237 11.6053 19.8916 11.4207C18.9594 11.2361 18.3534 10.331 18.5379 9.39883C18.7225 8.46668 19.6277 7.86063 20.5598 8.04521C21.492 8.22958 22.098 9.13495 21.9135 10.0671Z" fill="#99DFE3"/>
<path d="M39.2416 7.72385C39.2865 7.78194 39.358 7.81634 39.4319 7.8217H39.4451C39.5166 7.8217 39.5827 7.79533 39.633 7.74507L43.9021 3.47592C43.9497 3.42566 43.9787 3.35953 43.9787 3.28805V-2.75063C43.9787 -2.82479 43.947 -2.89607 43.8914 -2.94633C43.8358 -2.9966 43.7618 -3.02029 43.6877 -3.01246C40.3099 -2.66329 37.7627 0.164266 37.7627 3.56327C37.7629 5.07613 38.2868 6.55212 39.2416 7.72385Z" fill="#00526D"/>
<path d="M50.84 4.04716C50.7897 3.99154 50.7182 3.95982 50.6443 3.95982H45.9572C45.8488 3.95982 45.7534 4.02594 45.7112 4.12379C45.6714 4.22432 45.6953 4.33803 45.772 4.41466L49.1285 7.68388C49.1788 7.73147 49.2449 7.75804 49.3137 7.75804H49.3323C49.4064 7.75269 49.475 7.71581 49.5228 7.65752C50.3005 6.67098 50.7792 5.4939 50.9088 4.25069C50.9141 4.17673 50.8902 4.10278 50.84 4.04716Z" fill="#99DFE3"/>
<path d="M48.5627 8.64426C48.6208 8.59667 48.6552 8.52519 48.6578 8.45123C48.6605 8.37728 48.6315 8.30312 48.5785 8.25018L44.5209 4.30116C44.4177 4.20063 44.2511 4.20331 44.1481 4.30384L40.1461 8.30848C40.0932 8.36142 40.0668 8.43537 40.0695 8.50953C40.0748 8.58369 40.1093 8.65497 40.1673 8.70255C41.3391 9.65221 42.8177 10.1759 44.3306 10.1759C45.8752 10.1759 47.3778 9.631 48.5627 8.64426Z" fill="#0081A7"/>
<path d="M45.0182 -3.01246C44.9443 -3.02029 44.8701 -2.9966 44.8145 -2.94633C44.7589 -2.89607 44.7271 -2.82459 44.7271 -2.75063V2.9018C44.7271 3.04724 44.8462 3.1663 44.9916 3.1663H50.6441C50.7182 3.1663 50.7895 3.13458 50.8398 3.07896C50.89 3.02334 50.9139 2.94939 50.9086 2.87523C50.5862 -0.216628 48.1103 -2.69254 45.0182 -3.01246Z" fill="#00AFB9"/>
<path d="M5.14279 36.6559C5.14279 36.6559 7.9654 35.0281 9.91458 30.9446C11.8637 26.8608 12.0491 23.4612 12.0491 23.4612L21.836 27.0668C21.836 27.0668 21.6506 30.4665 19.7014 34.5502C17.7523 38.6339 14.88 40.5833 14.88 40.5833L5.14279 36.6559Z" fill="#99DFE3"/>
<path d="M12.9535 24.9038L20.9708 27.9947" stroke="#00526D" stroke-width="0.6817" stroke-miterlimit="10"/>
<path d="M12.6608 25.8782L20.6781 28.9692" stroke="#00526D" stroke-width="0.6817" stroke-miterlimit="10"/>
<path d="M12.4072 26.8536L20.4245 29.9444" stroke="#00526D" stroke-width="0.6817" stroke-miterlimit="10"/>
<path d="M12.1544 27.7897L20.1717 30.8805" stroke="#00526D" stroke-width="0.6817" stroke-miterlimit="10"/>
<path d="M11.9008 28.7649L19.9181 31.8557" stroke="#00526D" stroke-width="0.6817" stroke-miterlimit="10"/>
<path d="M11.4676 29.7368L19.4849 32.8276" stroke="#00526D" stroke-width="0.6817" stroke-miterlimit="10"/>
<path d="M10.9333 30.7067L18.9506 33.7977" stroke="#00526D" stroke-width="0.6817" stroke-miterlimit="10"/>
<path d="M10.3997 31.6376L18.417 34.7284" stroke="#00526D" stroke-width="0.6817" stroke-miterlimit="10"/>
<path d="M9.75821 32.5615L17.7755 35.6525" stroke="#00526D" stroke-width="0.6817" stroke-miterlimit="10"/>
<path d="M9.21417 33.4153L17.2315 36.5064" stroke="#00526D" stroke-width="0.6817" stroke-miterlimit="10"/>
<path d="M8.57391 34.2674L16.5912 37.3584" stroke="#00526D" stroke-width="0.6817" stroke-miterlimit="10"/>
<path d="M8.00537 35.1449L16.0227 38.2357" stroke="#00526D" stroke-width="0.6817" stroke-miterlimit="10"/>
<path d="M7.26849 36.0431L15.2858 39.1339" stroke="#00526D" stroke-width="0.6817" stroke-miterlimit="10"/>
<path d="M83.5802 13.3625C83.5802 13.3625 80.1099 11.3614 77.7137 6.34097C75.3175 1.32054 75.0895 -2.85899 75.0895 -2.85899L63.0579 1.57372C63.0579 1.57372 63.2859 5.75325 65.6821 10.7737C68.0783 15.7941 71.6095 18.1907 71.6095 18.1907L83.5802 13.3625Z" fill="#99DFE3"/>
<path d="M73.9777 -1.08554L64.1214 2.71455" stroke="#00526D" stroke-width="0.8381" stroke-miterlimit="10"/>
<path d="M74.3376 0.11256L64.4813 3.91244" stroke="#00526D" stroke-width="0.8381" stroke-miterlimit="10"/>
<path d="M74.6495 1.31148L64.793 5.11156" stroke="#00526D" stroke-width="0.8381" stroke-miterlimit="10"/>
<path d="M74.9601 2.4624L65.1039 6.26228" stroke="#00526D" stroke-width="0.8381" stroke-miterlimit="10"/>
<path d="M75.272 3.66132L65.4155 7.4612" stroke="#00526D" stroke-width="0.8381" stroke-miterlimit="10"/>
<path d="M75.8045 4.85612L65.948 8.656" stroke="#00526D" stroke-width="0.8381" stroke-miterlimit="10"/>
<path d="M76.4615 6.04866L66.605 9.84853" stroke="#00526D" stroke-width="0.8381" stroke-miterlimit="10"/>
<path d="M77.1173 7.19299L67.2611 10.9929" stroke="#00526D" stroke-width="0.8381" stroke-miterlimit="10"/>
<path d="M77.9059 8.32887L68.0497 12.1287" stroke="#00526D" stroke-width="0.8381" stroke-miterlimit="10"/>
<path d="M78.5748 9.37865L68.7185 13.1785" stroke="#00526D" stroke-width="0.8381" stroke-miterlimit="10"/>
<path d="M79.3617 10.4262L69.5055 14.226" stroke="#00526D" stroke-width="0.8381" stroke-miterlimit="10"/>
<path d="M80.0609 11.5048L70.2044 15.3047" stroke="#00526D" stroke-width="0.8381" stroke-miterlimit="10"/>
<path d="M80.9669 12.6089L71.1104 16.409" stroke="#00526D" stroke-width="0.8381" stroke-miterlimit="10"/>
<path d="M77.4762 21.0541L78.862 20.4808L79.2989 19.2316L79.7365 20.5447L81.1216 21.0541L79.8644 21.5471L79.2989 22.8768L78.862 21.6538L77.4762 21.0541Z" fill="#99DFE3"/>
<path d="M76.5583 26.2853C76.1436 26.4326 75.7289 26.5088 75.314 26.5638C74.8994 26.6159 74.4847 26.6402 74.07 26.6406C73.6553 26.6412 73.2407 26.6167 72.826 26.5648C72.4113 26.51 71.9966 26.4334 71.5819 26.2853C71.9966 26.1372 72.4113 26.0605 72.826 26.0057C73.2407 25.9536 73.6553 25.9293 74.07 25.9299C74.4847 25.9303 74.8994 25.9546 75.314 26.0068C75.7289 26.0616 76.1436 26.138 76.5583 26.2853Z" fill="#99DFE3"/>
<path d="M74.0702 23.797C74.2175 24.2117 74.2937 24.6264 74.3487 25.041C74.4008 25.4557 74.4251 25.8704 74.4256 26.2851C74.4262 26.6997 74.4019 27.1144 74.3497 27.5291C74.295 27.9438 74.2183 28.3585 74.0702 28.7731C73.9221 28.3585 73.8455 27.9438 73.7907 27.5291C73.7385 27.1144 73.7142 26.6997 73.7149 26.2851C73.7153 25.8704 73.7396 25.4557 73.7917 25.041C73.8465 24.6264 73.9229 24.2117 74.0702 23.797Z" fill="#99DFE3"/>
<path d="M75.8295 28.0445C75.4321 27.8554 75.0848 27.6162 74.7527 27.3618C74.4227 27.1056 74.1123 26.8295 73.8187 26.5364C73.5252 26.2437 73.2491 25.9332 72.9926 25.6032C72.738 25.2713 72.4991 24.9238 72.3106 24.5258C72.7086 24.7143 73.0559 24.9533 73.3878 25.2079C73.7178 25.4644 74.0282 25.7404 74.3211 26.0339C74.6141 26.3275 74.8901 26.6377 75.1466 26.968C75.4012 27.3 75.6404 27.6471 75.8295 28.0445Z" fill="#99DFE3"/>
<path d="M75.8294 24.5258C75.6403 24.9232 75.401 25.2705 75.1468 25.6024C74.8905 25.9324 74.6142 26.2428 74.3213 26.5364C74.0284 26.8301 73.7179 27.1062 73.3879 27.3624C73.0561 27.6169 72.7085 27.856 72.3108 28.0445C72.4993 27.6465 72.7382 27.2992 72.9928 26.9673C73.2493 26.6371 73.5253 26.3269 73.8189 26.0339C74.1124 25.741 74.4229 25.465 74.7529 25.2085C75.085 24.9543 75.4323 24.7149 75.8294 24.5258Z" fill="#99DFE3"/>
<path d="M69.6748 21.0183C69.4531 21.097 69.2317 21.1377 69.0102 21.1672C68.7888 21.195 68.5671 21.208 68.3457 21.2082C68.1242 21.2084 67.9026 21.1954 67.6811 21.1676C67.4595 21.1384 67.238 21.0974 67.0164 21.0183C67.238 20.9392 67.4595 20.8982 67.6811 20.8689C67.9026 20.8411 68.1242 20.8281 68.3457 20.8283C68.5671 20.8285 68.7888 20.8415 69.0102 20.8693C69.2317 20.8988 69.4533 20.9396 69.6748 21.0183Z" fill="#99DFE3"/>
<path d="M68.3457 19.6889C68.4244 19.9104 68.4652 20.1321 68.4944 20.3535C68.5222 20.5752 68.5352 20.7966 68.5354 21.0181C68.5358 21.2397 68.5228 21.4612 68.4948 21.6826C68.4656 21.9041 68.4246 22.1257 68.3455 22.3472C68.2664 22.1257 68.2254 21.9041 68.1961 21.6826C68.1683 21.4612 68.1553 21.2395 68.1557 21.0181C68.1559 20.7964 68.1689 20.575 68.1967 20.3535C68.2262 20.1321 68.267 19.9106 68.3457 19.6889Z" fill="#99DFE3"/>
<path d="M69.2855 21.958C69.0733 21.8571 68.8877 21.7292 68.7103 21.5932C68.534 21.4562 68.3681 21.3087 68.2114 21.1524C68.0544 20.996 67.9071 20.8302 67.7701 20.6539C67.6342 20.4765 67.5064 20.2909 67.4057 20.0783C67.6183 20.1788 67.8039 20.3067 67.9813 20.4427C68.1576 20.5797 68.3234 20.7272 68.48 20.884C68.6363 21.0407 68.7838 21.2065 68.9208 21.3829C69.0566 21.5603 69.1845 21.7459 69.2855 21.958Z" fill="#99DFE3"/>
<path d="M69.2855 20.0783C69.1845 20.2905 69.0566 20.4761 68.9208 20.6534C68.7838 20.8298 68.6363 20.9956 68.48 21.1524C68.3234 21.3093 68.1576 21.4566 67.9813 21.5936C67.8039 21.7296 67.6183 21.8573 67.4057 21.9578C67.5064 21.7452 67.6342 21.5596 67.7701 21.3823C67.9071 21.2059 68.0546 21.0401 68.2114 20.8835C68.3681 20.727 68.534 20.5795 68.7103 20.4427C68.8877 20.3072 69.0733 20.1794 69.2855 20.0783Z" fill="#99DFE3"/>
<path d="M35.5634 23.8009L34.1777 23.2274L33.7407 21.9782L33.3032 23.2915L31.9181 23.8009L33.1753 24.2937L33.7407 25.6236L34.1777 24.4004L35.5634 23.8009Z" fill="#99DFE3"/>
<path d="M35.4106 16.7876C35.7688 16.9147 36.1268 16.9807 36.4849 17.0282C36.8429 17.0732 37.2009 17.0942 37.559 17.0946C37.917 17.095 38.2752 17.074 38.6332 17.0291C38.9913 16.9817 39.3493 16.9156 39.7075 16.7876C39.3495 16.6597 38.9913 16.5936 38.6332 16.5462C38.2752 16.5013 37.9172 16.4801 37.559 16.4807C37.2009 16.4811 36.8429 16.5021 36.4849 16.547C36.1268 16.5944 35.7688 16.6603 35.4106 16.7876Z" fill="#99DFE3"/>
<path d="M37.5592 14.6391C37.4321 14.9971 37.3661 15.3551 37.3188 15.7134C37.2736 16.0714 37.2528 16.4294 37.2524 16.7876C37.2518 17.1457 37.2728 17.5037 37.3179 17.8619C37.3651 18.22 37.4314 18.578 37.5592 18.9362C37.6871 18.5782 37.7532 18.22 37.8006 17.8619C37.8455 17.5039 37.8665 17.1459 37.8661 16.7876C37.8657 16.4296 37.8447 16.0716 37.7998 15.7134C37.7522 15.3553 37.6863 14.9973 37.5592 14.6391Z" fill="#99DFE3"/>
<path d="M36.0399 18.3067C36.3831 18.1433 36.6828 17.9369 36.9696 17.7171C37.2547 17.4957 37.5227 17.2573 37.7761 17.0044C38.0295 16.7516 38.268 16.4834 38.4893 16.1985C38.7091 15.9119 38.9155 15.612 39.0782 15.2682C38.7346 15.4309 38.4347 15.6373 38.1479 15.8571C37.8628 16.0786 37.5948 16.3169 37.342 16.5705C37.0891 16.8239 36.8507 17.0919 36.6293 17.377C36.4099 17.6638 36.2033 17.9637 36.0399 18.3067Z" fill="#99DFE3"/>
<path d="M36.0399 15.2684C36.2033 15.6114 36.4099 15.9113 36.6295 16.1981C36.8507 16.4832 37.0893 16.7512 37.3422 17.0046C37.595 17.2581 37.8632 17.4965 38.1481 17.7179C38.4347 17.9377 38.7346 18.1442 39.0784 18.3069C38.9157 17.9633 38.7093 17.6633 38.4895 17.3766C38.268 17.0915 38.0297 16.8235 37.7763 16.5707C37.5229 16.3178 37.2549 16.0794 36.9698 15.858C36.6828 15.6384 36.3831 15.4317 36.0399 15.2684Z" fill="#99DFE3"/>
<path d="M25.5601 23.1934C25.721 23.2507 25.8821 23.2801 26.043 23.3016C26.2038 23.3218 26.3649 23.3312 26.5258 23.3314C26.6867 23.3316 26.8478 23.3222 27.0087 23.302C27.1696 23.2808 27.3307 23.2509 27.4915 23.1934C27.3307 23.1359 27.1696 23.1061 27.0087 23.0849C26.8478 23.0647 26.6867 23.0552 26.5258 23.0554C26.3649 23.0556 26.2038 23.0649 26.043 23.0853C25.8821 23.1065 25.7212 23.1362 25.5601 23.1934Z" fill="#99DFE3"/>
<path d="M26.5258 22.2277C26.4688 22.3886 26.4391 22.5497 26.4177 22.7106C26.3975 22.8714 26.388 23.0325 26.3878 23.1934C26.3876 23.3543 26.3971 23.5154 26.4172 23.6763C26.4385 23.8372 26.4683 23.9983 26.5258 24.1591C26.5833 23.9983 26.6129 23.8372 26.6344 23.6763C26.6546 23.5154 26.664 23.3545 26.6638 23.1934C26.6636 23.0325 26.6544 22.8714 26.634 22.7106C26.6127 22.5495 26.5831 22.3886 26.5258 22.2277Z" fill="#99DFE3"/>
<path d="M25.8429 23.8761C25.9972 23.8028 26.1319 23.7099 26.2609 23.6112C26.389 23.5117 26.5095 23.4046 26.6235 23.2909C26.7374 23.1771 26.8447 23.0566 26.9442 22.9287C27.0429 22.7998 27.1358 22.665 27.2089 22.5105C27.0544 22.5837 26.9197 22.6764 26.7907 22.7752C26.6626 22.8747 26.5421 22.9819 26.4284 23.0958C26.3147 23.2097 26.2075 23.3302 26.108 23.4583C26.0092 23.5871 25.9165 23.722 25.8429 23.8761Z" fill="#99DFE3"/>
<path d="M25.8429 22.5105C25.9163 22.6648 26.0092 22.7995 26.1078 22.9285C26.2073 23.0566 26.3145 23.1771 26.4282 23.2911C26.5419 23.405 26.6624 23.5121 26.7905 23.6118C26.9195 23.7105 27.0542 23.8034 27.2087 23.8765C27.1356 23.722 27.0427 23.5873 26.944 23.4583C26.8445 23.3302 26.7374 23.2097 26.6233 23.096C26.5093 22.9823 26.3888 22.8752 26.2607 22.7757C26.1319 22.6768 25.9972 22.5839 25.8429 22.5105Z" fill="#99DFE3"/>
</svg>
